<svg width="110" height="102" viewBox="0 0 110 102" fill="none" xmlns="http://www.w3.org/2000/svg">
<path d="M1.00232 11.6939V19.6389C1.00232 20.7591 1.91035 21.6671 3.03046 21.6671H22.9062C24.0264 21.6671 24.9344 20.7591 24.9344 19.6389V11.6939M12.9684 4.7782H3.03046C1.91035 4.7782 1.00232 5.68623 1.00232 6.80634V7.09175C1.00232 7.73206 1.3047 8.33477 1.81799 8.71756L11.4528 15.9028C12.3519 16.5734 13.5848 16.5734 14.4839 15.9028L24.1187 8.71756C24.632 8.33477 24.9344 7.73206 24.9344 7.09175V6.80634C24.9344 5.68623 24.0264 4.7782 22.9062 4.7782H12.9684Z" stroke="url(#paint0_linear_25_355)" stroke-width="1.45043" stroke-linecap="round"/>
<path d="M1.00232 47.2494V55.1945C1.00232 56.3146 1.91035 57.2226 3.03046 57.2226H22.9062C24.0264 57.2226 24.9344 56.3146 24.9344 55.1945V47.2494M12.9684 40.3337H3.03046C1.91035 40.3337 1.00232 41.2418 1.00232 42.3619V42.6473C1.00232 43.2876 1.3047 43.8903 1.81799 44.2731L11.4528 51.4584C12.3519 52.1289 13.5848 52.1289 14.4839 51.4584L24.1187 44.2731C24.632 43.8903 24.9344 43.2876 24.9344 42.6473V42.3619C24.9344 41.2418 24.0264 40.3337 22.9062 40.3337H12.9684Z" stroke="url(#paint1_linear_25_355)" stroke-width="1.45043" stroke-linecap="round"/>
<path d="M1.00232 83.694V91.6391C1.00232 92.7592 1.91035 93.6672 3.03046 93.6672H22.9062C24.0264 93.6672 24.9344 92.7592 24.9344 91.6391V83.694M12.9684 76.7783H3.03046C1.91035 76.7783 1.00232 77.6863 1.00232 78.8065V79.0919C1.00232 79.7322 1.3047 80.3349 1.81799 80.7177L11.4528 87.9029C12.3519 88.5735 13.5848 88.5735 14.4839 87.9029L24.1187 80.7177C24.632 80.3349 24.9344 79.7322 24.9344 79.0919V78.8065C24.9344 77.6863 24.0264 76.7783 22.9062 76.7783H12.9684Z" stroke="url(#paint2_linear_25_355)" stroke-width="1.45043" stroke-linecap="round"/>
<g filter="url(#filter0_d_25_355)">
<path d="M93.5985 24.2353C99.8788 24.2353 104.97 19.144 104.97 12.8637C104.97 6.5834 99.8788 1.49219 93.5985 1.49219C87.3181 1.49219 82.2269 6.5834 82.2269 12.8637C82.2269 19.144 87.3181 24.2353 93.5985 24.2353Z" fill="url(#paint3_linear_25_355)"/>
<path d="M91.9755 17.7373C91.5447 17.7372 91.1316 17.566 90.827 17.2613L89.2025 15.6368C88.9066 15.3304 88.7428 14.92 88.7465 14.4941C88.7502 14.0682 88.9211 13.6607 89.2223 13.3595C89.5235 13.0583 89.9309 12.8875 90.3568 12.8838C90.7828 12.8801 91.1931 13.0438 91.4995 13.3397L91.8001 13.6403L95.5494 8.64004C95.6774 8.46937 95.8378 8.32559 96.0213 8.21689C96.2049 8.1082 96.4081 8.03673 96.6193 8.00656C96.8305 7.97639 97.0455 7.98811 97.2522 8.04106C97.4589 8.094 97.6531 8.18714 97.8237 8.31514C97.9944 8.44314 98.1382 8.6035 98.2469 8.78707C98.3556 8.97063 98.427 9.17381 98.4572 9.385C98.4874 9.59619 98.4756 9.81125 98.4227 10.0179C98.3698 10.2246 98.2766 10.4188 98.1486 10.5894L93.2751 17.0875C93.1359 17.2744 92.9581 17.4292 92.7537 17.5413C92.5494 17.6534 92.3233 17.7203 92.0908 17.7373H91.9755Z" fill="white"/>
</g>
<g filter="url(#filter1_d_25_355)">
<path d="M93.5985 59.9755C99.8788 59.9755 104.97 54.8843 104.97 48.604C104.97 42.3236 99.8788 37.2324 93.5985 37.2324C87.3181 37.2324 82.2269 42.3236 82.2269 48.604C82.2269 54.8843 87.3181 59.9755 93.5985 59.9755Z" fill="url(#paint4_linear_25_355)"/>
<path d="M91.9755 53.4775C91.5447 53.4774 91.1316 53.3062 90.827 53.0015L89.2025 51.377C88.9066 51.0706 88.7428 50.6603 88.7465 50.2343C88.7502 49.8084 88.9211 49.4009 89.2223 49.0998C89.5235 48.7986 89.9309 48.6277 90.3568 48.624C90.7828 48.6203 91.1931 48.784 91.4995 49.08L91.8001 49.3805L95.5494 44.3803C95.6774 44.2096 95.8378 44.0658 96.0213 43.9571C96.2049 43.8484 96.4081 43.777 96.6193 43.7468C96.8305 43.7166 97.0455 43.7283 97.2522 43.7813C97.4589 43.8342 97.6531 43.9274 97.8237 44.0554C97.9944 44.1834 98.1382 44.3437 98.2469 44.5273C98.3556 44.7109 98.427 44.914 98.4572 45.1252C98.4874 45.3364 98.4756 45.5515 98.4227 45.7581C98.3698 45.9648 98.2766 46.159 98.1486 46.3297L93.2751 52.8277C93.1359 53.0146 92.9581 53.1694 92.7537 53.2815C92.5494 53.3936 92.3233 53.4605 92.0908 53.4775H91.9755Z" fill="white"/>
</g>
<g filter="url(#filter2_d_25_355)">
<path d="M93.5985 95.7148C99.8788 95.7148 104.97 90.6235 104.97 84.3432C104.97 78.0629 99.8788 72.9717 93.5985 72.9717C87.3181 72.9717 82.2269 78.0629 82.2269 84.3432C82.2269 90.6235 87.3181 95.7148 93.5985 95.7148Z" fill="url(#paint5_linear_25_355)"/>
<path d="M91.9755 89.2168C91.5447 89.2167 91.1316 89.0455 90.827 88.7408L89.2025 87.1163C88.9066 86.8099 88.7428 86.3995 88.7465 85.9736C88.7502 85.5477 88.9211 85.1402 89.2223 84.839C89.5235 84.5378 89.9309 84.367 90.3568 84.3633C90.7828 84.3596 91.1931 84.5233 91.4995 84.8192L91.8001 85.1198L95.5494 80.1195C95.6774 79.9489 95.8378 79.8051 96.0213 79.6964C96.2049 79.5877 96.4081 79.5162 96.6193 79.4861C96.8305 79.4559 97.0455 79.4676 97.2522 79.5206C97.4589 79.5735 97.6531 79.6666 97.8237 79.7946C97.9944 79.9226 98.1382 80.083 98.2469 80.2666C98.3556 80.4501 98.427 80.6533 98.4572 80.8645C98.4874 81.0757 98.4756 81.2907 98.4227 81.4974C98.3698 81.7041 98.2766 81.8983 98.1486 82.0689L93.2751 88.567C93.1359 88.7539 92.9581 88.9087 92.7537 89.0208C92.5494 89.1329 92.3233 89.1997 92.0908 89.2168H91.9755Z" fill="white"/>
</g>
<path d="M70.9404 9.61131H39.5115C38.9558 9.61131 38.4229 9.44016 38.0299 9.13551C37.637 8.83085 37.4163 8.41765 37.4163 7.98681C37.4163 7.55596 37.637 7.14277 38.0299 6.83811C38.4229 6.53346 38.9558 6.3623 39.5115 6.3623H70.9404C71.4961 6.3623 72.029 6.53346 72.422 6.83811C72.8149 7.14277 73.0357 7.55596 73.0357 7.98681C73.0357 8.41765 72.8149 8.83085 72.422 9.13551C72.029 9.44016 71.4961 9.61131 70.9404 9.61131Z" fill="#B9DBFF"/>
<path d="M63.4345 19.3574H39.7816C39.1542 19.3574 38.5526 19.1863 38.109 18.8816C37.6655 18.5769 37.4163 18.1637 37.4163 17.7329C37.4163 17.3021 37.6655 16.8889 38.109 16.5842C38.5526 16.2796 39.1542 16.1084 39.7816 16.1084H63.4345C64.0618 16.1084 64.6634 16.2796 65.107 16.5842C65.5506 16.8889 65.7998 17.3021 65.7998 17.7329C65.7998 18.1637 65.5506 18.5769 65.107 18.8816C64.6634 19.1863 64.0618 19.3574 63.4345 19.3574Z" fill="#F8DCFF"/>
<path d="M70.9404 45.3486H39.5115C38.9558 45.3486 38.4229 45.1775 38.0299 44.8728C37.637 44.5682 37.4163 44.155 37.4163 43.7241C37.4163 43.2933 37.637 42.8801 38.0299 42.5754C38.4229 42.2708 38.9558 42.0996 39.5115 42.0996H70.9404C71.4961 42.0996 72.029 42.2708 72.422 42.5754C72.8149 42.8801 73.0357 43.2933 73.0357 43.7241C73.0357 44.155 72.8149 44.5682 72.422 44.8728C72.029 45.1775 71.4961 45.3486 70.9404 45.3486Z" fill="#B9DBFF"/>
<path d="M63.4345 55.0957H39.7816C39.1542 55.0957 38.5526 54.9245 38.109 54.6199C37.6655 54.3152 37.4163 53.902 37.4163 53.4712C37.4163 53.0403 37.6655 52.6271 38.109 52.3225C38.5526 52.0178 39.1542 51.8467 39.7816 51.8467H63.4345C64.0618 51.8467 64.6634 52.0178 65.107 52.3225C65.5506 52.6271 65.7998 53.0403 65.7998 53.4712C65.7998 53.902 65.5506 54.3152 65.107 54.6199C64.6634 54.9245 64.0618 55.0957 63.4345 55.0957Z" fill="#F8DCFF"/>
<path d="M70.9404 81.0907H39.5115C38.9558 81.0907 38.4229 80.9195 38.0299 80.6149C37.637 80.3102 37.4163 79.897 37.4163 79.4662C37.4163 79.0353 37.637 78.6221 38.0299 78.3175C38.4229 78.0128 38.9558 77.8417 39.5115 77.8417H70.9404C71.4961 77.8417 72.029 78.0128 72.422 78.3175C72.8149 78.6221 73.0357 79.0353 73.0357 79.4662C73.0357 79.897 72.8149 80.3102 72.422 80.6149C72.029 80.9195 71.4961 81.0907 70.9404 81.0907Z" fill="#B9DBFF"/>
<path d="M63.4345 90.8349H39.7816C39.1542 90.8349 38.5526 90.6638 38.109 90.3591C37.6655 90.0545 37.4163 89.6413 37.4163 89.2104C37.4163 88.7796 37.6655 88.3664 38.109 88.0617C38.5526 87.7571 39.1542 87.5859 39.7816 87.5859H63.4345C64.0618 87.5859 64.6634 87.7571 65.107 88.0617C65.5506 88.3664 65.7998 88.7796 65.7998 89.2104C65.7998 89.6413 65.5506 90.0545 65.107 90.3591C64.6634 90.6638 64.0618 90.8349 63.4345 90.8349Z" fill="#F8DCFF"/>
<defs>
<filter id="filter0_d_25_355" x="79.7902" y="0.679935" width="29.2411" height="29.2411" filterUnits="userSpaceOnUse" color-interpolation-filters="sRGB">
<feFlood flood-opacity="0" result="BackgroundImageFix"/>
<feColorMatrix in="SourceAlpha" type="matrix" values="0 0 0 0 0 0 0 0 0 0 0 0 0 0 0 0 0 0 127 0" result="hardAlpha"/>
<feOffset dx="0.812252" dy="2.43676"/>
<feGaussianBlur stdDeviation="1.6245"/>
<feComposite in2="hardAlpha" operator="out"/>
<feColorMatrix type="matrix" values="0 0 0 0 0.192157 0 0 0 0 0.172549 0 0 0 0 0.27451 0 0 0 0.18 0"/>
<feBlend mode="normal" in2="BackgroundImageFix" result="effect1_dropShadow_25_355"/>
<feBlend mode="normal" in="SourceGraphic" in2="effect1_dropShadow_25_355" result="shape"/>
</filter>
<filter id="filter1_d_25_355" x="79.7902" y="36.4202" width="29.2411" height="29.2411" filterUnits="userSpaceOnUse" color-interpolation-filters="sRGB">
<feFlood flood-opacity="0" result="BackgroundImageFix"/>
<feColorMatrix in="SourceAlpha" type="matrix" values="0 0 0 0 0 0 0 0 0 0 0 0 0 0 0 0 0 0 127 0" result="hardAlpha"/>
<feOffset dx="0.812252" dy="2.43676"/>
<feGaussianBlur stdDeviation="1.6245"/>
<feComposite in2="hardAlpha" operator="out"/>
<feColorMatrix type="matrix" values="0 0 0 0 0.192157 0 0 0 0 0.172549 0 0 0 0 0.27451 0 0 0 0.18 0"/>
<feBlend mode="normal" in2="BackgroundImageFix" result="effect1_dropShadow_25_355"/>
<feBlend mode="normal" in="SourceGraphic" in2="effect1_dropShadow_25_355" result="shape"/>
</filter>
<filter id="filter2_d_25_355" x="79.7902" y="72.1594" width="29.2411" height="29.2411" filterUnits="userSpaceOnUse" color-interpolation-filters="sRGB">
<feFlood flood-opacity="0" result="BackgroundImageFix"/>
<feColorMatrix in="SourceAlpha" type="matrix" values="0 0 0 0 0 0 0 0 0 0 0 0 0 0 0 0 0 0 127 0" result="hardAlpha"/>
<feOffset dx="0.812252" dy="2.43676"/>
<feGaussianBlur stdDeviation="1.6245"/>
<feComposite in2="hardAlpha" operator="out"/>
<feColorMatrix type="matrix" values="0 0 0 0 0.192157 0 0 0 0 0.172549 0 0 0 0 0.27451 0 0 0 0.18 0"/>
<feBlend mode="normal" in2="BackgroundImageFix" result="effect1_dropShadow_25_355"/>
<feBlend mode="normal" in="SourceGraphic" in2="effect1_dropShadow_25_355" result="shape"/>
</filter>
<linearGradient id="paint0_linear_25_355" x1="-6.14265" y1="2.11153" x2="24.9685" y2="21.6671" gradientUnits="userSpaceOnUse">
<stop stop-color="#949CED"/>
<stop offset="1" stop-color="#97BAFF"/>
</linearGradient>
<linearGradient id="paint1_linear_25_355" x1="-6.14265" y1="37.6671" x2="24.9685" y2="57.2226" gradientUnits="userSpaceOnUse">
<stop stop-color="#949CED"/>
<stop offset="1" stop-color="#97BAFF"/>
</linearGradient>
<linearGradient id="paint2_linear_25_355" x1="-6.14265" y1="74.1117" x2="24.9685" y2="93.6672" gradientUnits="userSpaceOnUse">
<stop stop-color="#949CED"/>
<stop offset="1" stop-color="#97BAFF"/>
</linearGradient>
<linearGradient id="paint3_linear_25_355" x1="93.5985" y1="1.49219" x2="93.5985" y2="24.2353" gradientUnits="userSpaceOnUse">
<stop stop-color="#33A0FF"/>
<stop offset="1" stop-color="#36D5EB"/>
</linearGradient>
<linearGradient id="paint4_linear_25_355" x1="93.5985" y1="37.2324" x2="93.5985" y2="59.9755" gradientUnits="userSpaceOnUse">
<stop stop-color="#33A0FF"/>
<stop offset="1" stop-color="#36D5EB"/>
</linearGradient>
<linearGradient id="paint5_linear_25_355" x1="93.5985" y1="72.9717" x2="93.5985" y2="95.7148" gradientUnits="userSpaceOnUse">
<stop stop-color="#33A0FF"/>
<stop offset="1" stop-color="#36D5EB"/>
</linearGradient>
</defs>
</svg>
