<svg width="123" height="101" viewBox="0 0 123 101" fill="none" xmlns="http://www.w3.org/2000/svg">
<g filter="url(#filter0_d_25_381)">
<path d="M102.85 15.8869C102.85 20.0272 99.4935 23.3836 95.3532 23.3836H12.3854C8.24506 23.3836 4.88867 20.0272 4.88867 15.8869V9.94201C4.88867 5.8017 8.24506 2.44531 12.3854 2.44531H95.3532C99.4935 2.44531 102.85 5.8017 102.85 9.94201V15.8869Z" fill="white"/>
</g>
<path d="M17.5824 18.2336C20.52 18.2336 22.9014 15.8522 22.9014 12.9146C22.9014 9.97707 20.52 7.5957 17.5824 7.5957C14.6449 7.5957 12.2635 9.97707 12.2635 12.9146C12.2635 15.8522 14.6449 18.2336 17.5824 18.2336Z" fill="url(#paint0_linear_25_381)"/>
<path d="M29.867 9.36914C29.6318 9.36914 29.4064 9.46254 29.2401 9.62879C29.0739 9.79504 28.9805 10.0205 28.9805 10.2556C28.9805 10.4907 29.0739 10.7162 29.2401 10.8825C29.4064 11.0487 29.6318 11.1421 29.867 11.1421H94.591C94.8257 11.1416 95.0507 11.0479 95.2165 10.8817C95.3823 10.7155 95.4754 10.4904 95.4754 10.2556C95.4754 10.0209 95.3823 9.79572 95.2165 9.62953C95.0507 9.46334 94.8257 9.3697 94.591 9.36914H29.867Z" fill="#B9DBFF"/>
<path d="M29.8669 14.6875C29.6318 14.687 29.4061 14.7799 29.2395 14.9458C29.0729 15.1117 28.979 15.337 28.9785 15.5721C28.978 15.8072 29.071 16.0329 29.2369 16.1995C29.4027 16.3661 29.628 16.46 29.8631 16.4605H70.7823C70.8989 16.4607 71.0143 16.4379 71.1221 16.3934C71.2298 16.349 71.3277 16.2837 71.4102 16.2014C71.4926 16.119 71.5581 16.0212 71.6027 15.9136C71.6473 15.8059 71.6703 15.6905 71.6703 15.574C71.6703 15.4575 71.6473 15.3421 71.6027 15.2344C71.5581 15.1268 71.4926 15.029 71.4102 14.9466C71.3277 14.8643 71.2298 14.799 71.1221 14.7546C71.0143 14.7101 70.8989 14.6873 70.7823 14.6875H29.8669Z" fill="#E3DCFF"/>
<path d="M102.85 20.5723C102.85 22.1249 101.591 23.3836 100.039 23.3836H7.69994C6.14732 23.3836 4.88867 22.1249 4.88867 20.5723V5.25657C4.88867 3.70396 6.14732 2.44531 7.69993 2.44531H100.039C101.591 2.44531 102.85 3.70396 102.85 5.25657V20.5723ZM6.38426 19.0767C6.38426 20.6294 7.64291 21.888 9.19552 21.888H98.543C100.096 21.888 101.354 20.6294 101.354 19.0767V6.75217C101.354 5.19955 100.096 3.9409 98.543 3.9409H9.19553C7.64291 3.9409 6.38426 5.19955 6.38426 6.75217V19.0767Z" fill="#97BAFF"/>
<g filter="url(#filter1_d_25_381)">
<path d="M102.85 42.1259C102.85 46.2662 99.4934 49.6226 95.3531 49.6226H12.3853C8.24497 49.6226 4.88858 46.2662 4.88858 42.1259V36.181C4.88858 32.0407 8.24497 28.6843 12.3853 28.6843H95.3531C99.4934 28.6843 102.85 32.0407 102.85 36.181V42.1259Z" fill="white"/>
</g>
<path d="M17.5824 44.4066C20.52 44.4066 22.9014 42.0252 22.9014 39.0876C22.9014 36.15 20.52 33.7687 17.5824 33.7687C14.6449 33.7687 12.2635 36.15 12.2635 39.0876C12.2635 42.0252 14.6449 44.4066 17.5824 44.4066Z" fill="url(#paint1_linear_25_381)"/>
<path d="M29.867 35.541C29.6318 35.541 29.4064 35.6344 29.2401 35.8007C29.0739 35.9669 28.9805 36.1924 28.9805 36.4275C28.9805 36.6626 29.0739 36.8881 29.2401 37.0543C29.4064 37.2206 29.6318 37.314 29.867 37.314H94.591C94.8257 37.3134 95.0507 37.2198 95.2165 37.0536C95.3823 36.8874 95.4754 36.6622 95.4754 36.4275C95.4754 36.1928 95.3823 35.9676 95.2165 35.8014C95.0507 35.6352 94.8257 35.5416 94.591 35.541H29.867Z" fill="#B9DBFF"/>
<path d="M29.8669 40.8604C29.6318 40.8599 29.4061 40.9528 29.2395 41.1187C29.0729 41.2846 28.979 41.5099 28.9785 41.745C28.978 41.9801 29.071 42.2058 29.2369 42.3724C29.4027 42.539 29.628 42.6328 29.8631 42.6333H70.7823C70.8989 42.6335 71.0143 42.6107 71.1221 42.5663C71.2298 42.5218 71.3277 42.4565 71.4102 42.3742C71.4926 42.2919 71.5581 42.1941 71.6027 42.0864C71.6473 41.9788 71.6703 41.8634 71.6703 41.7468C71.6703 41.6303 71.6473 41.5149 71.6027 41.4073C71.5581 41.2996 71.4926 41.2018 71.4102 41.1195C71.3277 41.0371 71.2298 40.9719 71.1221 40.9274C71.0143 40.8829 70.8989 40.8602 70.7823 40.8604H29.8669Z" fill="#E3DCFF"/>
<path d="M102.85 46.7452C102.85 48.2978 101.591 49.5564 100.039 49.5564H7.69988C6.14726 49.5564 4.88861 48.2978 4.88861 46.7452V31.4294C4.88861 29.8768 6.14726 28.6182 7.69987 28.6182H100.039C101.591 28.6182 102.85 29.8768 102.85 31.4294V46.7452ZM6.3842 45.2496C6.3842 46.8022 7.64285 48.0608 9.19546 48.0608H98.543C100.096 48.0608 101.354 46.8022 101.354 45.2496V32.925C101.354 31.3724 100.096 30.1138 98.543 30.1138H9.19547C7.64285 30.1138 6.3842 31.3724 6.3842 32.925V45.2496Z" fill="#97BAFF"/>
<g filter="url(#filter2_d_25_381)">
<path d="M102.85 68.3642C102.85 72.5045 99.4934 75.8609 95.3531 75.8609H12.3853C8.24497 75.8609 4.88858 72.5045 4.88858 68.3642V62.4193C4.88858 58.279 8.24497 54.9226 12.3853 54.9226H95.3531C99.4934 54.9226 102.85 58.279 102.85 62.4193V68.3642Z" fill="white"/>
</g>
<path d="M17.5824 70.5803C20.52 70.5803 22.9014 68.1989 22.9014 65.2613C22.9014 62.3238 20.52 59.9424 17.5824 59.9424C14.6449 59.9424 12.2635 62.3238 12.2635 65.2613C12.2635 68.1989 14.6449 70.5803 17.5824 70.5803Z" fill="url(#paint2_linear_25_381)"/>
<path d="M29.867 61.7148C29.6318 61.7148 29.4064 61.8082 29.2401 61.9745C29.0739 62.1407 28.9805 62.3662 28.9805 62.6013C28.9805 62.8364 29.0739 63.0619 29.2401 63.2282C29.4064 63.3944 29.6318 63.4878 29.867 63.4878H94.591C94.8257 63.4873 95.0507 63.3936 95.2165 63.2274C95.3823 63.0612 95.4754 62.8361 95.4754 62.6013C95.4754 62.3666 95.3823 62.1414 95.2165 61.9752C95.0507 61.809 94.8257 61.7154 94.591 61.7148H29.867Z" fill="#B9DBFF"/>
<path d="M29.8669 67.0332C29.6318 67.0327 29.4061 67.1256 29.2395 67.2915C29.0729 67.4574 28.979 67.6827 28.9785 67.9178C28.978 68.1529 29.071 68.3786 29.2369 68.5452C29.4027 68.7118 29.628 68.8057 29.8631 68.8062H70.7823C70.8989 68.8064 71.0143 68.7836 71.1221 68.7391C71.2298 68.6947 71.3277 68.6294 71.4102 68.5471C71.4926 68.4647 71.5581 68.3669 71.6027 68.2593C71.6473 68.1516 71.6703 68.0362 71.6703 67.9197C71.6703 67.8032 71.6473 67.6878 71.6027 67.5801C71.5581 67.4725 71.4926 67.3747 71.4102 67.2923C71.3277 67.21 71.2298 67.1447 71.1221 67.1003C71.0143 67.0558 70.8989 67.033 70.7823 67.0332H29.8669Z" fill="#E3DCFF"/>
<path d="M102.85 72.9179C102.85 74.4705 101.591 75.7292 100.039 75.7292H7.69984C6.14723 75.7292 4.88858 74.4705 4.88858 72.9179V57.6022C4.88858 56.0495 6.14723 54.7909 7.69984 54.7909H100.039C101.591 54.7909 102.85 56.0495 102.85 57.6022V72.9179ZM6.38417 71.4223C6.38417 72.9749 7.64282 74.2336 9.19543 74.2336H98.5429C100.096 74.2336 101.354 72.9749 101.354 71.4223V59.0977C101.354 57.5451 100.096 56.2865 98.5429 56.2865H9.19544C7.64282 56.2865 6.38417 57.5451 6.38417 59.0977V71.4223Z" fill="#97BAFF"/>
<path d="M115.736 19.6449C119.453 19.6449 122.466 16.6317 122.466 12.9147C122.466 9.19776 119.453 6.18457 115.736 6.18457C112.019 6.18457 109.006 9.19776 109.006 12.9147C109.006 16.6317 112.019 19.6449 115.736 19.6449Z" fill="url(#paint3_linear_25_381)"/>
<path d="M114.64 15.6875L112.668 13.1517L113.815 12.2596L114.749 13.4603L117.904 10.1299L118.959 11.1294L114.64 15.6875Z" fill="white"/>
<path d="M115.736 45.8177C119.453 45.8177 122.466 42.8045 122.466 39.0876C122.466 35.3706 119.453 32.3574 115.736 32.3574C112.019 32.3574 109.006 35.3706 109.006 39.0876C109.006 42.8045 112.019 45.8177 115.736 45.8177Z" fill="url(#paint4_linear_25_381)"/>
<path d="M114.64 41.8604L112.668 39.3246L113.815 38.4325L114.749 39.6332L117.904 36.3027L118.959 37.3023L114.64 41.8604Z" fill="white"/>
<path d="M84.6543 74.4531C84.6543 66.0723 91.4483 59.2783 99.8291 59.2783V59.2783C111.272 59.2783 120.548 68.5547 120.548 79.9977V95.1725H84.6543V74.4531Z" fill="white"/>
<g filter="url(#filter3_d_25_381)">
<path d="M112.194 83.2848C111.473 82.5637 110.652 82.3434 109.73 82.6238L107.807 80.7009C109.53 78.5777 110.391 76.1941 110.391 73.5501C110.391 70.3453 109.27 67.6212 107.026 65.3778C104.783 63.1344 102.059 62.0127 98.8539 62.0127C95.6491 62.0127 92.925 63.1344 90.6816 65.3778C88.4382 67.6212 87.3165 70.3453 87.3165 73.5501C87.3165 76.755 88.4382 79.4791 90.6816 81.7224C92.925 83.9658 95.6491 85.0875 98.8539 85.0875C101.658 85.0875 104.042 84.2262 106.005 82.5036L107.928 84.4265C107.687 85.388 107.908 86.2092 108.589 86.8903L113.696 91.998C114.217 92.5187 114.818 92.7791 115.499 92.7791C116.22 92.7791 116.821 92.5187 117.302 91.998C117.823 91.4772 118.083 90.8763 118.083 90.1952C118.083 89.5142 117.823 88.9133 117.302 88.3925L112.194 83.2848ZM98.8539 82.5036C96.3702 82.5036 94.257 81.6323 92.5144 79.8897C90.7717 78.1471 89.9004 76.0339 89.9004 73.5501C89.9004 71.0664 90.7717 68.9532 92.5144 67.2105C94.257 65.4679 96.3702 64.5966 98.8539 64.5966C101.338 64.5966 103.451 65.4679 105.194 67.2105C106.936 68.9532 107.807 71.0664 107.807 73.5501C107.807 76.0339 106.936 78.1471 105.194 79.8897C103.451 81.6323 101.338 82.5036 98.8539 82.5036Z" fill="#3000B5"/>
</g>
<path d="M17.6515 12.5404C17.2574 12.5404 16.92 12.4 16.6393 12.1194C16.3586 11.8387 16.2182 11.5013 16.2182 11.1071C16.2182 10.713 16.3586 10.3755 16.6393 10.0949C16.92 9.81417 17.2574 9.67383 17.6515 9.67383C18.0457 9.67383 18.3831 9.81417 18.6638 10.0949C18.9445 10.3755 19.0848 10.713 19.0848 11.1071C19.0848 11.5013 18.9445 11.8387 18.6638 12.1194C18.3831 12.4 18.0457 12.5404 17.6515 12.5404ZM14.785 15.4069V14.4036C14.785 14.2006 14.8373 14.0139 14.9419 13.8436C15.0465 13.6733 15.1853 13.5434 15.3583 13.4541C15.7285 13.269 16.1048 13.1301 16.487 13.0374C16.8692 12.9447 17.2574 12.8985 17.6515 12.8987C18.0457 12.8987 18.4339 12.945 18.8161 13.0377C19.1983 13.1304 19.5745 13.2692 19.9448 13.4541C20.1179 13.5437 20.2569 13.6736 20.3615 13.8439C20.4661 14.0143 20.5183 14.2008 20.5181 14.4036V15.4069H14.785Z" fill="white"/>
<path d="M17.6517 38.7132C17.2576 38.7132 16.9201 38.5729 16.6395 38.2922C16.3588 38.0115 16.2184 37.6741 16.2184 37.28C16.2184 36.8858 16.3588 36.5484 16.6395 36.2677C16.9201 35.987 17.2576 35.8467 17.6517 35.8467C18.0459 35.8467 18.3833 35.987 18.664 36.2677C18.9446 36.5484 19.085 36.8858 19.085 37.28C19.085 37.6741 18.9446 38.0115 18.664 38.2922C18.3833 38.5729 18.0459 38.7132 17.6517 38.7132ZM14.7852 41.5798V40.5765C14.7852 40.3734 14.8375 40.1868 14.9421 40.0164C15.0467 39.8461 15.1855 39.7163 15.3585 39.6269C15.7287 39.4418 16.105 39.3029 16.4872 39.2102C16.8694 39.1175 17.2576 39.0713 17.6517 39.0715C18.0459 39.0715 18.434 39.1179 18.8162 39.2106C19.1984 39.3033 19.5747 39.442 19.9449 39.6269C20.1181 39.7165 20.257 39.8465 20.3617 40.0168C20.4663 40.1871 20.5185 40.3737 20.5183 40.5765V41.5798H14.7852Z" fill="white"/>
<path d="M17.6515 64.8871C17.2574 64.8871 16.92 64.7467 16.6393 64.466C16.3586 64.1853 16.2182 63.8479 16.2182 63.4538C16.2182 63.0596 16.3586 62.7222 16.6393 62.4415C16.92 62.1608 17.2574 62.0205 17.6515 62.0205C18.0457 62.0205 18.3831 62.1608 18.6638 62.4415C18.9445 62.7222 19.0848 63.0596 19.0848 63.4538C19.0848 63.8479 18.9445 64.1853 18.6638 64.466C18.3831 64.7467 18.0457 64.8871 17.6515 64.8871ZM14.785 67.7536V66.7503C14.785 66.5473 14.8373 66.3606 14.9419 66.1903C15.0465 66.0199 15.1853 65.8901 15.3583 65.8008C15.7285 65.6156 16.1048 65.4767 16.487 65.384C16.8692 65.2914 17.2574 65.2451 17.6515 65.2454C18.0457 65.2454 18.4339 65.2917 18.8161 65.3844C19.1983 65.4771 19.5745 65.6159 19.9448 65.8008C20.1179 65.8904 20.2569 66.0203 20.3615 66.1906C20.4661 66.3609 20.5183 66.5475 20.5181 66.7503V67.7536H14.785Z" fill="white"/>
<defs>
<filter id="filter0_d_25_381" x="0.203236" y="0.571138" width="107.332" height="30.3091" filterUnits="userSpaceOnUse" color-interpolation-filters="sRGB">
<feFlood flood-opacity="0" result="BackgroundImageFix"/>
<feColorMatrix in="SourceAlpha" type="matrix" values="0 0 0 0 0 0 0 0 0 0 0 0 0 0 0 0 0 0 127 0" result="hardAlpha"/>
<feOffset dy="2.81126"/>
<feGaussianBlur stdDeviation="2.34272"/>
<feComposite in2="hardAlpha" operator="out"/>
<feColorMatrix type="matrix" values="0 0 0 0 0 0 0 0 0 0.521569 0 0 0 0 0.592157 0 0 0 0.12 0"/>
<feBlend mode="normal" in2="BackgroundImageFix" result="effect1_dropShadow_25_381"/>
<feBlend mode="normal" in="SourceGraphic" in2="effect1_dropShadow_25_381" result="shape"/>
</filter>
<filter id="filter1_d_25_381" x="0.203144" y="26.8102" width="107.332" height="30.3091" filterUnits="userSpaceOnUse" color-interpolation-filters="sRGB">
<feFlood flood-opacity="0" result="BackgroundImageFix"/>
<feColorMatrix in="SourceAlpha" type="matrix" values="0 0 0 0 0 0 0 0 0 0 0 0 0 0 0 0 0 0 127 0" result="hardAlpha"/>
<feOffset dy="2.81126"/>
<feGaussianBlur stdDeviation="2.34272"/>
<feComposite in2="hardAlpha" operator="out"/>
<feColorMatrix type="matrix" values="0 0 0 0 0 0 0 0 0 0.521569 0 0 0 0 0.592157 0 0 0 0.12 0"/>
<feBlend mode="normal" in2="BackgroundImageFix" result="effect1_dropShadow_25_381"/>
<feBlend mode="normal" in="SourceGraphic" in2="effect1_dropShadow_25_381" result="shape"/>
</filter>
<filter id="filter2_d_25_381" x="0.203144" y="53.0484" width="107.332" height="30.3091" filterUnits="userSpaceOnUse" color-interpolation-filters="sRGB">
<feFlood flood-opacity="0" result="BackgroundImageFix"/>
<feColorMatrix in="SourceAlpha" type="matrix" values="0 0 0 0 0 0 0 0 0 0 0 0 0 0 0 0 0 0 127 0" result="hardAlpha"/>
<feOffset dy="2.81126"/>
<feGaussianBlur stdDeviation="2.34272"/>
<feComposite in2="hardAlpha" operator="out"/>
<feColorMatrix type="matrix" values="0 0 0 0 0 0 0 0 0 0.521569 0 0 0 0 0.592157 0 0 0 0.12 0"/>
<feBlend mode="normal" in2="BackgroundImageFix" result="effect1_dropShadow_25_381"/>
<feBlend mode="normal" in="SourceGraphic" in2="effect1_dropShadow_25_381" result="shape"/>
</filter>
<filter id="filter3_d_25_381" x="82.6311" y="60.1385" width="40.1373" height="40.1374" filterUnits="userSpaceOnUse" color-interpolation-filters="sRGB">
<feFlood flood-opacity="0" result="BackgroundImageFix"/>
<feColorMatrix in="SourceAlpha" type="matrix" values="0 0 0 0 0 0 0 0 0 0 0 0 0 0 0 0 0 0 127 0" result="hardAlpha"/>
<feOffset dy="2.81126"/>
<feGaussianBlur stdDeviation="2.34272"/>
<feComposite in2="hardAlpha" operator="out"/>
<feColorMatrix type="matrix" values="0 0 0 0 0 0 0 0 0 0.521569 0 0 0 0 0.592157 0 0 0 0.12 0"/>
<feBlend mode="normal" in2="BackgroundImageFix" result="effect1_dropShadow_25_381"/>
<feBlend mode="normal" in="SourceGraphic" in2="effect1_dropShadow_25_381" result="shape"/>
</filter>
<linearGradient id="paint0_linear_25_381" x1="12.2922" y1="7.68017" x2="23.0106" y2="18.1493" gradientUnits="userSpaceOnUse">
<stop stop-color="#736FFD"/>
<stop offset="1" stop-color="#CF84F5"/>
</linearGradient>
<linearGradient id="paint1_linear_25_381" x1="12.2922" y1="33.8531" x2="23.0106" y2="44.3223" gradientUnits="userSpaceOnUse">
<stop stop-color="#736FFD"/>
<stop offset="1" stop-color="#CF84F5"/>
</linearGradient>
<linearGradient id="paint2_linear_25_381" x1="12.2922" y1="60.0269" x2="23.0106" y2="70.496" gradientUnits="userSpaceOnUse">
<stop stop-color="#736FFD"/>
<stop offset="1" stop-color="#CF84F5"/>
</linearGradient>
<linearGradient id="paint3_linear_25_381" x1="109.065" y1="6.20233" x2="122.507" y2="19.6036" gradientUnits="userSpaceOnUse">
<stop stop-color="#0178E7"/>
<stop offset="1" stop-color="#49E9FA"/>
</linearGradient>
<linearGradient id="paint4_linear_25_381" x1="109.065" y1="32.3752" x2="122.507" y2="45.7765" gradientUnits="userSpaceOnUse">
<stop stop-color="#0178E7"/>
<stop offset="1" stop-color="#49E9FA"/>
</linearGradient>
</defs>
</svg>
