<svg width="151" height="26" viewBox="0 0 151 26" fill="none" xmlns="http://www.w3.org/2000/svg">
<path d="M23.7899 2.56644C24.1222 2.2345 24.1222 1.6963 23.7899 1.36436C23.4575 1.03241 22.9188 1.03241 22.5864 1.36436L23.7899 2.56644ZM14.9056 5.05367C14.9056 4.58423 14.5247 4.20367 14.0547 4.20367C13.5847 4.20367 13.2038 4.58423 13.2038 5.05367L14.9056 5.05367ZM20.2381 11.8593C20.7081 11.8593 21.089 11.4788 21.089 11.0093C21.089 10.5399 20.7081 10.1593 20.2381 10.1593L20.2381 11.8593ZM14.0547 10.9519L13.2038 10.9519L14.0547 10.9519ZM22.5864 1.36436L13.5498 10.391L14.7533 11.593L23.7899 2.56644L22.5864 1.36436ZM14.9056 10.9519L14.9056 5.05367L13.2038 5.05367L13.2038 10.9519L14.9056 10.9519ZM14.0547 11.8594L20.2381 11.8593L20.2381 10.1593L14.0547 10.1594L14.0547 11.8594ZM13.5498 10.391C14.0502 9.8912 14.9056 10.2451 14.9056 10.9519L13.2038 10.9519C13.2038 11.7597 14.1815 12.1642 14.7533 11.593L13.5498 10.391Z" fill="#C2C2C2"/>
<path d="M0.675471 23.4506C0.343157 23.7825 0.343157 24.3207 0.675471 24.6527C1.00778 24.9846 1.54657 24.9846 1.87889 24.6527L0.675471 23.4506ZM9.55969 20.9634C9.55969 21.4328 9.94067 21.8134 10.4106 21.8134C10.8806 21.8134 11.2616 21.4328 11.2616 20.9634L9.55969 20.9634ZM4.22723 14.1577C3.75727 14.1577 3.37629 14.5383 3.37629 15.0077C3.3763 15.4771 3.75728 15.8577 4.22724 15.8577L4.22723 14.1577ZM10.4106 15.0651L11.2616 15.0651L10.4106 15.0651ZM1.87889 24.6527L10.9155 15.6261L9.71208 14.424L0.675471 23.4506L1.87889 24.6527ZM9.55969 15.0651L9.55969 20.9634L11.2616 20.9634L11.2616 15.0651L9.55969 15.0651ZM10.4106 14.1576L4.22723 14.1577L4.22724 15.8577L10.4106 15.8576L10.4106 14.1576ZM10.9155 15.6261C10.4152 16.1258 9.55969 15.7719 9.55969 15.0651L11.2616 15.0651C11.2616 14.2573 10.2839 13.8528 9.71208 14.424L10.9155 15.6261Z" fill="#C2C2C2"/>
<path d="M44.6401 21.5H40.7916C40.5411 21.5 40.3362 21.4393 40.1768 21.3178C40.025 21.1964 39.9035 21.0522 39.8124 20.8852L36.4877 15.0783C36.427 15.2453 36.3587 15.3895 36.2828 15.511L33.1858 20.8852C33.0795 21.037 32.9543 21.1774 32.81 21.3064C32.6658 21.4355 32.4799 21.5 32.2521 21.5H28.6542L33.9942 12.9605L28.8591 4.91063H32.7076C32.9581 4.91063 33.1402 4.94479 33.2541 5.01311C33.3756 5.07383 33.4818 5.1801 33.5729 5.33191L36.8748 10.9224C36.9128 10.8237 36.9545 10.7289 37.0001 10.6378C37.0532 10.5467 37.1102 10.4518 37.1709 10.3531L40.0629 5.38884C40.1692 5.22185 40.2792 5.1004 40.3931 5.02449C40.5146 4.94859 40.6626 4.91063 40.8372 4.91063H44.5262L39.3228 12.8011L44.6401 21.5ZM55.8992 18.4258V21.5H45.9023V4.91063H49.7508V18.4258H55.8992ZM63.0357 12.71C63.5595 12.71 64.0035 12.6455 64.3679 12.5165C64.7398 12.3798 65.0434 12.1939 65.2788 11.9586C65.5141 11.7232 65.6849 11.45 65.7911 11.1388C65.8974 10.82 65.9505 10.4784 65.9505 10.114C65.9505 9.38532 65.7114 8.81602 65.2332 8.40613C64.7626 7.99623 64.0301 7.79128 63.0357 7.79128H61.4872V12.71H63.0357ZM71.2109 21.5H67.7267C67.0815 21.5 66.6185 21.2571 66.3377 20.7713L63.5822 15.955C63.4532 15.7501 63.309 15.6021 63.1496 15.511C62.9902 15.4123 62.7625 15.363 62.4664 15.363H61.4872V21.5H57.6388V4.91063H63.0357C64.235 4.91063 65.256 5.03588 66.0985 5.28637C66.9487 5.52927 67.6395 5.87085 68.1708 6.31111C68.7097 6.75137 69.1007 7.27133 69.3436 7.87099C69.5865 8.47065 69.7079 9.12344 69.7079 9.82937C69.7079 10.3683 69.6358 10.8769 69.4916 11.3551C69.3473 11.8333 69.1348 12.2774 68.854 12.6873C68.5731 13.0896 68.2239 13.4501 67.8064 13.7689C67.3966 14.0877 66.9221 14.3496 66.3832 14.5546C66.6337 14.6836 66.869 14.8468 67.0891 15.0442C67.3093 15.2339 67.5066 15.4616 67.6812 15.7273L71.2109 21.5ZM96.0704 4.91063V21.5H92.6773V11.9586C92.6773 11.7384 92.6811 11.4993 92.6887 11.2412C92.7039 10.9832 92.7267 10.7213 92.757 10.4556L88.3507 18.9837C88.214 19.2494 88.0281 19.4505 87.7927 19.5872C87.565 19.7238 87.3032 19.7921 87.0071 19.7921H86.4834C86.1873 19.7921 85.9217 19.7238 85.6863 19.5872C85.4586 19.4505 85.2764 19.2494 85.1398 18.9837L80.7334 10.4328C80.7562 10.7061 80.7752 10.9756 80.7904 11.2412C80.8056 11.4993 80.8131 11.7384 80.8131 11.9586V21.5H77.4201V4.91063H80.3577C80.5247 4.91063 80.6689 4.91443 80.7904 4.92202C80.9194 4.92961 81.0333 4.95238 81.132 4.99033C81.2306 5.02829 81.3179 5.08901 81.3938 5.17251C81.4773 5.24842 81.557 5.35848 81.6329 5.5027L85.9027 13.9169C86.0545 14.2054 86.1987 14.5052 86.3353 14.8164C86.4796 15.1276 86.6162 15.4465 86.7452 15.7729C86.8743 15.4389 87.0071 15.1125 87.1437 14.7937C87.288 14.4749 87.4398 14.1712 87.5992 13.8828L91.8575 5.5027C91.9334 5.35848 92.0094 5.24842 92.0853 5.17251C92.1688 5.08901 92.2598 5.02829 92.3585 4.99033C92.4572 4.95238 92.5673 4.92961 92.6887 4.92202C92.8178 4.91443 92.9658 4.91063 93.1328 4.91063H96.0704ZM102.924 7.87099V11.7422H108.139V14.5887H102.924V18.5396H109.733V21.5H99.0526V4.91063H109.733V7.87099H102.924ZM126.931 13.1996C126.931 14.3989 126.722 15.5072 126.305 16.5243C125.895 17.5339 125.314 18.4106 124.563 19.1545C123.811 19.8908 122.904 20.4677 121.841 20.8852C120.786 21.2951 119.614 21.5 118.323 21.5H111.879V4.91063H118.323C119.614 4.91063 120.786 5.11938 121.841 5.53686C122.904 5.95435 123.811 6.53124 124.563 7.26753C125.314 8.00382 125.895 8.88054 126.305 9.89769C126.722 10.9072 126.931 12.0079 126.931 13.1996ZM122.991 13.1996C122.991 12.3798 122.885 11.6397 122.673 10.9794C122.46 10.319 122.153 9.76106 121.75 9.30562C121.356 8.84259 120.87 8.48962 120.293 8.24672C119.716 7.99623 119.059 7.87099 118.323 7.87099H115.75V18.5396H118.323C119.059 18.5396 119.716 18.4182 120.293 18.1753C120.87 17.9248 121.356 17.5718 121.75 17.1164C122.153 16.6534 122.46 16.0917 122.673 15.4313C122.885 14.7709 122.991 14.027 122.991 13.1996ZM132.846 21.5H128.975V4.91063H132.846V21.5ZM144.586 15.158L143.049 10.615C142.935 10.3266 142.813 9.98878 142.684 9.60165C142.555 9.20694 142.426 8.78186 142.297 8.32643C142.183 8.78945 142.062 9.21833 141.933 9.61304C141.804 10.0078 141.682 10.3493 141.569 10.6378L140.043 15.158H144.586ZM150.7 21.5H147.717C147.383 21.5 147.113 21.4241 146.909 21.2723C146.704 21.1129 146.548 20.9117 146.442 20.6688L145.463 17.7768H139.155L138.176 20.6688C138.092 20.8814 137.94 21.0749 137.72 21.2495C137.508 21.4165 137.242 21.5 136.923 21.5H133.917L140.339 4.91063H144.278L150.7 21.5Z" fill="#8F8F8F"/>
</svg>
