<svg width="84" height="35" viewBox="0 0 84 35" fill="none" xmlns="http://www.w3.org/2000/svg">
<path d="M25.7314 4.62911V13.9805H24.7529C24.5191 13.9805 24.3714 13.8666 24.3098 13.6389L24.1806 12.6327C23.7744 13.082 23.319 13.4451 22.8143 13.722C22.3097 13.9928 21.7312 14.1282 21.0788 14.1282C20.568 14.1282 20.1157 14.0451 19.7218 13.8789C19.3341 13.7066 19.0079 13.4666 18.7433 13.1589C18.4787 12.8512 18.2787 12.4788 18.1433 12.0419C18.014 11.6049 17.9494 11.1218 17.9494 10.5926V4.62911H19.5926V10.5926C19.5926 11.3003 19.7526 11.848 20.0726 12.2357C20.3988 12.6235 20.8942 12.8173 21.5589 12.8173C22.0451 12.8173 22.4974 12.7035 22.9159 12.4758C23.3405 12.2419 23.7313 11.9219 24.0883 11.5157V4.62911H25.7314ZM31.5771 14.1282C30.8385 14.1282 30.2693 13.922 29.8693 13.5097C29.4754 13.0973 29.2784 12.5035 29.2784 11.728V6.00458H28.1522C28.0538 6.00458 27.9707 5.97689 27.903 5.9215C27.8353 5.85996 27.8014 5.76764 27.8014 5.64456V4.98913L29.3338 4.79527L29.7123 1.90586C29.7308 1.81355 29.7708 1.7397 29.8323 1.68431C29.9 1.62277 29.9862 1.592 30.0908 1.592H30.9216V4.81374H33.6264V6.00458H30.9216V11.6172C30.9216 12.0111 31.017 12.3034 31.2078 12.4942C31.3986 12.685 31.6448 12.7804 31.9463 12.7804C32.1186 12.7804 32.2663 12.7589 32.3894 12.7158C32.5187 12.6665 32.6294 12.6142 32.7217 12.5588C32.8141 12.5035 32.891 12.4542 32.9525 12.4111C33.0202 12.3619 33.0787 12.3373 33.1279 12.3373C33.2141 12.3373 33.291 12.3896 33.3587 12.4942L33.8387 13.2789C33.5556 13.5435 33.2141 13.7528 32.8141 13.9066C32.414 14.0543 32.0017 14.1282 31.5771 14.1282ZM37.2525 6.50307C37.5479 5.86303 37.911 5.36454 38.3418 5.0076C38.7726 4.6445 39.2987 4.46295 39.9203 4.46295C40.1173 4.46295 40.305 4.48449 40.4834 4.52757C40.6681 4.57065 40.8311 4.63834 40.9727 4.73066L40.8527 5.95843C40.8158 6.11228 40.7234 6.18921 40.5757 6.18921C40.4896 6.18921 40.3634 6.17075 40.1973 6.13382C40.0311 6.0969 39.8434 6.07843 39.6341 6.07843C39.3387 6.07843 39.0741 6.12151 38.8403 6.20767C38.6125 6.29383 38.4064 6.42307 38.2218 6.59539C38.0433 6.76155 37.8802 6.9708 37.7325 7.22312C37.5909 7.46929 37.4617 7.75238 37.3448 8.0724V13.9805H35.6924V4.62911H36.634C36.8124 4.62911 36.9355 4.66296 37.0032 4.73066C37.0709 4.79835 37.1171 4.91528 37.1417 5.08145L37.2525 6.50307ZM48.667 8.28473C48.667 7.90316 48.6116 7.55545 48.5009 7.24158C48.3962 6.92156 48.2393 6.6477 48.0301 6.41999C47.827 6.18613 47.5777 6.00766 47.2823 5.88457C46.9869 5.75534 46.6515 5.69072 46.2761 5.69072C45.4884 5.69072 44.8637 5.9215 44.4021 6.38307C43.9467 6.83848 43.6636 7.47237 43.5529 8.28473H48.667ZM49.9963 12.6696C49.7932 12.9158 49.5502 13.1312 49.2671 13.3158C48.984 13.4943 48.6793 13.642 48.3532 13.7589C48.0331 13.8758 47.7008 13.962 47.3562 14.0174C47.0115 14.0789 46.67 14.1097 46.3315 14.1097C45.6853 14.1097 45.0883 14.002 44.5406 13.7866C43.999 13.5651 43.5282 13.245 43.1282 12.8266C42.7343 12.4019 42.4266 11.8788 42.2051 11.2572C41.9835 10.6356 41.8728 9.92175 41.8728 9.11555C41.8728 8.4632 41.9712 7.85393 42.1682 7.28774C42.3712 6.72155 42.6605 6.23229 43.0359 5.81995C43.4113 5.40147 43.8698 5.07529 44.4114 4.84143C44.9529 4.60142 45.5622 4.48141 46.2392 4.48141C46.7992 4.48141 47.3162 4.5768 47.79 4.76758C48.2701 4.95221 48.6824 5.22299 49.027 5.57994C49.3778 5.93073 49.6517 6.36768 49.8486 6.89079C50.0456 7.40775 50.144 7.99855 50.144 8.66321C50.144 8.92169 50.1163 9.09401 50.061 9.18017C50.0056 9.26633 49.9009 9.30941 49.7471 9.30941H43.4975C43.5159 9.90021 43.5959 10.4141 43.7375 10.851C43.8852 11.288 44.0883 11.6542 44.3468 11.9496C44.6052 12.2388 44.9129 12.4573 45.2699 12.605C45.6268 12.7465 46.0269 12.8173 46.47 12.8173C46.8823 12.8173 47.2362 12.7712 47.5316 12.6788C47.8331 12.5804 48.0916 12.4758 48.307 12.365C48.5224 12.2542 48.7009 12.1527 48.8424 12.0603C48.9901 11.9619 49.1163 11.9126 49.2209 11.9126C49.3563 11.9126 49.4609 11.965 49.5348 12.0696L49.9963 12.6696Z" fill="#8F8F8F"/>
<path d="M33.8355 30.6794C33.9614 30.6794 34.0699 30.7284 34.1609 30.8264L35.0428 31.7923C34.4269 32.5203 33.6745 33.0837 32.7856 33.4827C31.9036 33.8816 30.8397 34.0811 29.5938 34.0811C28.5019 34.0811 27.5115 33.8921 26.6226 33.5142C25.7407 33.1362 24.9848 32.6078 24.3548 31.9288C23.7319 31.2499 23.2489 30.438 22.906 29.4931C22.563 28.5481 22.3915 27.5087 22.3915 26.3748C22.3915 25.2409 22.57 24.2015 22.927 23.2566C23.2909 22.3117 23.7984 21.4998 24.4493 20.8209C25.1003 20.1419 25.8772 19.6135 26.7801 19.2355C27.69 18.8575 28.6944 18.6685 29.7933 18.6685C30.8642 18.6685 31.8161 18.8435 32.6491 19.1935C33.482 19.5435 34.2064 20.0089 34.8224 20.5899L34.0874 21.6293C34.0384 21.7063 33.9754 21.7693 33.8984 21.8183C33.8285 21.8673 33.734 21.8918 33.615 21.8918C33.482 21.8918 33.3245 21.8253 33.1425 21.6923C32.9675 21.5593 32.7331 21.4123 32.4391 21.2513C32.1521 21.0833 31.7951 20.9328 31.3682 20.7999C30.9412 20.6669 30.4093 20.6004 29.7723 20.6004C29.0234 20.6004 28.3375 20.7334 27.7145 20.9993C27.0916 21.2583 26.5526 21.6363 26.0977 22.1332C25.6497 22.6232 25.2997 23.2286 25.0478 23.9496C24.8028 24.6635 24.6803 25.4719 24.6803 26.3748C24.6803 27.2918 24.8098 28.1072 25.0688 28.8211C25.3277 29.535 25.6847 30.1405 26.1397 30.6374C26.5946 31.1344 27.1301 31.5124 27.746 31.7713C28.362 32.0303 29.0269 32.1598 29.7408 32.1598C30.1748 32.1598 30.5633 32.1353 30.9062 32.0863C31.2562 32.0303 31.5747 31.9498 31.8616 31.8448C32.1556 31.7398 32.4321 31.6069 32.6911 31.4459C32.95 31.2779 33.2055 31.0784 33.4575 30.8474C33.5135 30.7984 33.573 30.7599 33.636 30.7319C33.699 30.6969 33.7655 30.6794 33.8355 30.6794ZM39.5998 18.4166V33.9131H37.5419V18.4166H39.5998ZM50.2197 27.3932C50.2197 26.9873 50.1602 26.6128 50.0412 26.2698C49.9292 25.9269 49.7612 25.6294 49.5373 25.3774C49.3133 25.1255 49.0403 24.9295 48.7183 24.7895C48.3964 24.6495 48.0254 24.5795 47.6054 24.5795C46.7445 24.5795 46.0656 24.828 45.5686 25.3249C45.0787 25.8219 44.7672 26.5113 44.6342 27.3932H50.2197ZM51.91 32.3908C51.6581 32.6848 51.3676 32.9402 51.0386 33.1572C50.7096 33.3672 50.3597 33.5387 49.9887 33.6717C49.6177 33.8047 49.2328 33.9026 48.8338 33.9656C48.4419 34.0286 48.0534 34.0601 47.6684 34.0601C46.9335 34.0601 46.2511 33.9376 45.6211 33.6927C44.9982 33.4407 44.4557 33.0767 43.9938 32.6008C43.5388 32.1178 43.1818 31.5229 42.9229 30.8159C42.6709 30.102 42.5449 29.2831 42.5449 28.3592C42.5449 27.6172 42.6604 26.9278 42.8914 26.2908C43.1223 25.6469 43.4513 25.087 43.8783 24.611C44.3122 24.135 44.8407 23.7606 45.4636 23.4876C46.0866 23.2146 46.7865 23.0781 47.5634 23.0781C48.2144 23.0781 48.8128 23.1866 49.3588 23.4036C49.9117 23.6136 50.3877 23.9216 50.7866 24.3275C51.1856 24.7335 51.4971 25.2339 51.7211 25.8289C51.952 26.4238 52.0675 27.1028 52.0675 27.8657C52.0675 28.1807 52.0325 28.3942 51.9625 28.5061C51.8925 28.6111 51.763 28.6636 51.5741 28.6636H44.5817C44.6027 29.3006 44.6937 29.857 44.8547 30.333C45.0157 30.8019 45.2361 31.1939 45.5161 31.5089C45.8031 31.8238 46.1426 32.0583 46.5345 32.2123C46.9265 32.3663 47.364 32.4433 47.8469 32.4433C48.3019 32.4433 48.6938 32.3908 49.0228 32.2858C49.3588 32.1808 49.6457 32.0688 49.8837 31.9498C50.1287 31.8238 50.3317 31.7083 50.4927 31.6034C50.6606 31.4984 50.8076 31.4459 50.9336 31.4459C51.1016 31.4459 51.2311 31.5089 51.3221 31.6349L51.91 32.3908ZM56.8298 25.2934C57.1728 24.5935 57.5857 24.0441 58.0687 23.6451C58.5517 23.2461 59.1326 23.0466 59.8115 23.0466C60.0425 23.0466 60.2595 23.0746 60.4625 23.1306C60.6725 23.1796 60.8544 23.2566 61.0084 23.3616L60.8719 24.905C60.8229 25.094 60.7075 25.1884 60.5255 25.1884C60.4275 25.1884 60.2805 25.171 60.0845 25.136C59.8885 25.094 59.6786 25.073 59.4546 25.073C59.1256 25.073 58.8351 25.122 58.5832 25.2199C58.3312 25.3109 58.1037 25.4509 57.9007 25.6399C57.7047 25.8219 57.5298 26.0494 57.3758 26.3223C57.2218 26.5883 57.0783 26.8928 56.9453 27.2358V33.9131H54.898V23.2461H56.0739C56.2979 23.2461 56.4484 23.2881 56.5253 23.3721C56.6093 23.4491 56.6688 23.5891 56.7038 23.7921L56.8298 25.2934ZM65.265 18.4166V27.4772H65.7479C65.8949 27.4772 66.0174 27.4562 66.1154 27.4142C66.2134 27.3722 66.3149 27.2883 66.4199 27.1623L69.6116 23.6451C69.7096 23.5121 69.818 23.4141 69.937 23.3511C70.056 23.2811 70.2065 23.2461 70.3885 23.2461H72.2573L68.4882 27.3722C68.2852 27.6312 68.0682 27.8307 67.8372 27.9707C67.9702 28.0617 68.0857 28.1667 68.1837 28.2857C68.2887 28.4047 68.3902 28.5341 68.4882 28.6741L72.4988 33.9131H70.6615C70.4935 33.9131 70.3465 33.8851 70.2205 33.8292C70.1015 33.7732 69.993 33.6717 69.895 33.5247L66.5983 29.2411C66.4934 29.0801 66.3884 28.9786 66.2834 28.9366C66.1784 28.8876 66.0209 28.8631 65.8109 28.8631H65.265V33.9131H63.2177V18.4166H65.265Z" fill="#8F8F8F"/>
<path d="M71.8754 6.29173C71.8262 6.35943 71.7769 6.41174 71.7277 6.44866C71.6785 6.48559 71.6108 6.50405 71.5246 6.50405C71.4323 6.50405 71.3307 6.46713 71.22 6.39328C71.1092 6.31327 70.9707 6.22711 70.8046 6.1348C70.6445 6.04248 70.4445 5.9594 70.2045 5.88555C69.9707 5.80555 69.6814 5.76554 69.3368 5.76554C68.8752 5.76554 68.469 5.84863 68.1182 6.01479C67.7674 6.1748 67.472 6.40866 67.232 6.71637C66.9982 7.02408 66.8197 7.39642 66.6966 7.83337C66.5797 8.27032 66.5212 8.75958 66.5212 9.30115C66.5212 9.86734 66.5858 10.372 66.7151 10.8151C66.8443 11.252 67.0259 11.6213 67.2597 11.9229C67.4997 12.2183 67.7859 12.446 68.1182 12.606C68.4567 12.7598 68.8352 12.8368 69.2537 12.8368C69.6537 12.8368 69.983 12.7906 70.2414 12.6983C70.4999 12.5998 70.7122 12.4921 70.8784 12.3752C71.0507 12.2583 71.1923 12.1536 71.3031 12.0613C71.42 11.9629 71.5338 11.9136 71.6446 11.9136C71.78 11.9136 71.8846 11.9659 71.9585 12.0706L72.42 12.6706C72.217 12.9229 71.9862 13.1383 71.7277 13.3168C71.4692 13.4953 71.1892 13.646 70.8876 13.7691C70.5922 13.8861 70.2814 13.9722 69.9553 14.0276C69.6291 14.083 69.2968 14.1107 68.9583 14.1107C68.3736 14.1107 67.829 14.003 67.3243 13.7876C66.8258 13.5722 66.392 13.2614 66.0227 12.8552C65.6535 12.4429 65.3642 11.9382 65.155 11.3413C64.9457 10.7443 64.8411 10.0643 64.8411 9.30115C64.8411 8.60572 64.9365 7.96261 65.1273 7.3718C65.3242 6.78099 65.6073 6.27327 65.9766 5.84863C66.352 5.41783 66.8105 5.08242 67.352 4.84241C67.8998 4.60239 68.5275 4.48239 69.2352 4.48239C69.8937 4.48239 70.4722 4.59008 70.9707 4.80548C71.4754 5.01473 71.9216 5.31321 72.3093 5.70092L71.8754 6.29173ZM76.2056 5.87632C76.6056 5.45168 77.0487 5.11319 77.5349 4.86087C78.0211 4.60855 78.5812 4.48239 79.215 4.48239C79.7258 4.48239 80.1751 4.56855 80.5628 4.74086C80.9567 4.90703 81.2829 5.14704 81.5413 5.46091C81.806 5.76862 82.006 6.14095 82.1414 6.5779C82.2768 7.01485 82.3445 7.49796 82.3445 8.02722V13.9814H80.6921V8.02722C80.6921 7.31949 80.529 6.77176 80.2028 6.38404C79.8828 5.99017 79.3935 5.79324 78.735 5.79324C78.2488 5.79324 77.7934 5.91017 77.3688 6.14403C76.9503 6.37789 76.5626 6.69483 76.2056 7.09486V13.9814H74.5532V0.383666H76.2056V5.87632Z" fill="#8F8F8F"/>
<path d="M58.8532 8.09605C58.6942 8.06625 58.5304 8.05135 58.3615 8.05135C58.0536 8.05135 57.7655 8.1184 57.4974 8.25249C57.2292 8.38658 56.9958 8.56785 56.7971 8.7963C56.6034 9.02475 56.4495 9.28797 56.3352 9.58595C56.221 9.87896 56.1639 10.1844 56.1639 10.5022C56.1639 10.8201 56.2309 11.0684 56.365 11.2472C56.5041 11.421 56.7052 11.5079 56.9684 11.5079C57.0976 11.5079 57.2267 11.4881 57.3558 11.4483C57.4899 11.4086 57.6166 11.3391 57.7357 11.2397C57.8549 11.1354 57.9642 10.9989 58.0635 10.83C58.1628 10.6612 58.2448 10.4501 58.3094 10.1968L58.8532 8.09605ZM59.7248 10.0031C59.6453 10.321 59.6056 10.5817 59.6056 10.7853C59.6105 10.984 59.6428 11.1429 59.7024 11.2621C59.762 11.3763 59.8464 11.4558 59.9557 11.5005C60.065 11.5452 60.1891 11.5675 60.3282 11.5675C60.5368 11.5675 60.7329 11.503 60.9167 11.3738C61.1054 11.2397 61.2693 11.0535 61.4084 10.8151C61.5474 10.5767 61.6567 10.2937 61.7361 9.96588C61.8206 9.6381 61.8628 9.28052 61.8628 8.89315C61.8628 8.24752 61.761 7.67888 61.5573 7.18721C61.3587 6.69554 61.0781 6.28582 60.7155 5.95804C60.353 5.62529 59.9209 5.37698 59.4193 5.21309C58.9227 5.04423 58.3764 4.9598 57.7804 4.9598C57.1249 4.9598 56.519 5.08396 55.9628 5.33228C55.4065 5.57563 54.9223 5.91086 54.5101 6.33796C54.1029 6.76507 53.7825 7.26915 53.5491 7.85021C53.3207 8.43128 53.2064 9.05704 53.2064 9.72749C53.2064 10.542 53.3331 11.2596 53.5864 11.8804C53.8396 12.4962 54.1873 13.0127 54.6293 13.4299C55.0713 13.8421 55.5903 14.1525 56.1862 14.3611C56.7872 14.5697 57.4353 14.674 58.1306 14.674C58.513 14.674 58.8706 14.6516 59.2033 14.6069C59.536 14.5672 59.8415 14.5101 60.1196 14.4356C60.3977 14.3661 60.651 14.2841 60.8794 14.1897C61.1079 14.1004 61.3115 14.0035 61.4903 13.8992C61.6194 13.8247 61.7336 13.8024 61.833 13.8322C61.9323 13.862 62.0043 13.9365 62.049 14.0557L62.3023 14.7187C61.7858 15.0564 61.1824 15.332 60.4921 15.5456C59.8017 15.7591 59.0146 15.8659 58.1306 15.8659C57.2317 15.8659 56.3998 15.7243 55.635 15.4413C54.8702 15.1582 54.2072 14.7509 53.646 14.2195C53.0897 13.6931 52.6527 13.05 52.3348 12.2901C52.022 11.5303 51.8655 10.6761 51.8655 9.72749C51.8655 9.19609 51.9326 8.67959 52.0667 8.17799C52.2057 7.67639 52.4019 7.20707 52.6552 6.77004C52.9085 6.32803 53.2139 5.92327 53.5715 5.55577C53.929 5.18826 54.3263 4.87289 54.7634 4.60968C55.2004 4.34646 55.6722 4.14284 56.1788 3.99882C56.6903 3.84983 57.2242 3.77533 57.7804 3.77533C58.4857 3.77533 59.1611 3.89452 59.8067 4.13291C60.4573 4.36633 61.0309 4.70404 61.5275 5.14604C62.0291 5.58308 62.4289 6.11944 62.7269 6.75514C63.0249 7.38586 63.1739 8.09853 63.1739 8.89315C63.1739 9.42454 63.0944 9.92366 62.9355 10.3905C62.7815 10.8524 62.563 11.2546 62.2799 11.5973C62.0018 11.94 61.6716 12.2107 61.2892 12.4093C60.9117 12.603 60.4995 12.6998 60.0525 12.6998C59.7099 12.6998 59.4069 12.6204 59.1437 12.4615C58.8805 12.3025 58.6992 12.0468 58.5999 11.6942C58.3069 12.0517 57.9965 12.3075 57.6687 12.4615C57.3409 12.6154 56.9858 12.6924 56.6034 12.6924C56.2905 12.6924 56.0174 12.6378 55.784 12.5285C55.5555 12.4192 55.3618 12.2703 55.2029 12.0815C55.049 11.8878 54.9322 11.6619 54.8528 11.4036C54.7783 11.1404 54.741 10.8549 54.741 10.5469C54.741 10.2639 54.7758 9.97829 54.8453 9.69024C54.9198 9.39723 55.0291 9.11663 55.1731 8.84845C55.3171 8.5753 55.4959 8.32202 55.7095 8.0886C55.928 7.85021 56.1813 7.64411 56.4693 7.47029C56.7623 7.2915 57.0901 7.15244 57.4527 7.05312C57.8202 6.94882 58.2224 6.89668 58.6595 6.89668C59.0469 6.89668 59.3771 6.92648 59.6503 6.98607C59.9234 7.04567 60.1866 7.1301 60.4399 7.23935L59.7248 10.0031Z" fill="#8F8F8F"/>
<g clip-path="url(#clip0_25_42)">
<path d="M16.6872 8.47269C16.6872 12.8375 13.1447 16.377 8.77353 16.377C4.40235 16.377 0.859878 12.8375 0.859878 8.47269C0.859878 4.10789 4.40235 0.568435 8.77353 0.568435C13.1447 0.568435 16.6872 4.10789 16.6872 8.47269Z" fill="#D8D8D8" stroke="#8F8F8F" stroke-width="1.13724"/>
<path d="M9.66728 7.57944C9.20592 7.11862 8.58489 6.85257 7.93266 6.8363C7.28043 6.82004 6.64688 7.05481 6.16308 7.49206L6.07103 7.57944L4.63273 9.01665C4.1643 9.48539 3.89768 10.1184 3.88969 10.7806C3.88171 11.4429 4.13299 12.0821 4.58998 12.562C5.04698 13.0418 5.67354 13.3244 6.33611 13.3495C6.99868 13.3746 7.64486 13.1402 8.13693 12.6963L8.22847 12.6089L9.3077 11.5309C9.39892 11.4395 9.45188 11.3168 9.45582 11.1878C9.45976 11.0588 9.4144 10.9331 9.32894 10.8363C9.24348 10.7395 9.12433 10.6788 8.9957 10.6665C8.86706 10.6543 8.73859 10.6914 8.63636 10.7704L8.58855 10.8125L7.50932 11.8906C7.22956 12.1716 6.85118 12.3328 6.45444 12.3399C6.05771 12.3469 5.67382 12.1993 5.38423 11.9283C5.09464 11.6574 4.92211 11.2844 4.90326 10.8884C4.8844 10.4925 5.02069 10.1049 5.28322 9.80765L5.35188 9.735L6.79017 8.2983C6.93186 8.15675 7.10007 8.04446 7.2852 7.96785C7.47034 7.89124 7.66876 7.85181 7.86915 7.85181C8.06954 7.85181 8.26797 7.89124 8.4531 7.96785C8.63823 8.04446 8.80644 8.15675 8.94813 8.2983C9.04356 8.39356 9.17297 8.44705 9.30788 8.447C9.4428 8.44695 9.57217 8.39337 9.66753 8.29804C9.7629 8.20272 9.81645 8.07345 9.8164 7.93869C9.81635 7.80392 9.76271 7.6747 9.66728 7.57944ZM12.904 4.34635C12.4426 3.88553 11.8216 3.61947 11.1693 3.60321C10.5171 3.58694 9.88356 3.82172 9.39976 4.25896L9.3077 4.34635L8.22898 5.42489C8.13777 5.51631 8.08481 5.63899 8.08086 5.768C8.07692 5.89702 8.12229 6.02269 8.20775 6.11951C8.29321 6.21632 8.41235 6.27701 8.54099 6.28925C8.66962 6.30149 8.7981 6.26436 8.90032 6.18541L8.94813 6.14324L10.0269 5.06571C10.3071 4.7876 10.6844 4.6289 11.0794 4.623C11.4744 4.61711 11.8563 4.76448 12.1447 5.03411C12.4332 5.30374 12.6057 5.67461 12.626 6.06869C12.6462 6.46278 12.5127 6.84936 12.2535 7.14711L12.1848 7.22026L10.746 8.65747C10.4599 8.9432 10.0719 9.1037 9.66728 9.1037C9.2627 9.1037 8.87468 8.9432 8.58855 8.65747C8.54133 8.61027 8.48527 8.57282 8.42356 8.54727C8.36185 8.52171 8.29571 8.50854 8.22891 8.50852C8.1621 8.50849 8.09595 8.52161 8.03422 8.54713C7.9725 8.57264 7.91641 8.61005 7.86915 8.65722C7.8219 8.70439 7.78441 8.76039 7.75882 8.82203C7.73324 8.88367 7.72006 8.94974 7.72003 9.01647C7.72001 9.0832 7.73314 9.14928 7.75868 9.21094C7.78423 9.2726 7.82168 9.32862 7.8689 9.37583C8.33026 9.83664 8.95128 10.1027 9.60352 10.119C10.2558 10.1352 10.8893 9.90045 11.3731 9.46321L11.4657 9.37583L12.904 7.93861C13.3807 7.46227 13.6485 6.81629 13.6485 6.14273C13.6485 5.46918 13.3807 4.82269 12.904 4.34635Z" fill="#5E5E5E"/>
</g>
<defs>
<clipPath id="clip0_25_42">
<rect width="16.9645" height="16.9458" fill="white" transform="matrix(-1 0 0 1 17.2578 0.000793457)"/>
</clipPath>
</defs>
</svg>
