<svg width="47" height="30" viewBox="0 0 47 30" fill="none" xmlns="http://www.w3.org/2000/svg">
<path d="M26.4339 15.2245C26.4339 21.4394 21.2734 26.5844 14.7743 26.5844C8.27526 26.5844 3.11474 21.4394 3.11474 15.2245C3.11474 9.00957 8.27526 3.86449 14.7743 3.86449C21.2734 3.86449 26.4339 9.00957 26.4339 15.2245Z" stroke="url(#paint0_linear_25_52)" stroke-width="6.12339"/>
<path d="M31.7887 29.1972C39.9191 29.1972 46.51 22.7404 46.51 14.7755H31.8171V20.7538H37.717C31.7887 26.3638 23.024 21.3488 23.1659 14.7755C23.2728 9.81831 27.3355 6.36049 31.8171 6.36049C34.682 6.36049 36.8944 7.63549 38.3977 9.36382L42.7702 5.17049C40.0743 2.21458 36.1534 0.353821 31.7887 0.353821C23.6584 0.353821 17.0674 6.81062 17.0674 14.7755C17.0674 22.7404 23.6584 29.1972 31.7887 29.1972Z" fill="url(#paint1_linear_25_52)"/>
<g clip-path="url(#clip0_25_52)">
<path fill-rule="evenodd" clip-rule="evenodd" d="M23.6093 26.767C25.2969 25.5245 26.7031 23.9349 27.7173 22.1063C25.4851 20.9001 23.7721 18.784 23.2977 16.3134C22.9547 18.8215 21.4368 21.031 19.2445 22.3242C20.3568 24.0948 21.8488 25.612 23.6093 26.767ZM18.8397 7.91323C21.1426 9.10938 22.7836 11.2854 23.2418 13.7978C23.5971 11.088 25.164 8.90966 27.2847 7.62711C26.1761 5.88025 24.6969 4.3826 22.9548 3.23962C21.2632 4.48506 19.8544 6.07926 18.8397 7.91323Z" fill="url(#paint2_linear_25_52)"/>
</g>
<defs>
<linearGradient id="paint0_linear_25_52" x1="0.0530393" y1="15.2528" x2="29.4956" y2="15.2528" gradientUnits="userSpaceOnUse">
<stop stop-color="#7F7F7F"/>
<stop offset="1" stop-color="white"/>
</linearGradient>
<linearGradient id="paint1_linear_25_52" x1="17.0674" y1="14.8038" x2="46.51" y2="14.8038" gradientUnits="userSpaceOnUse">
<stop stop-color="#959595"/>
<stop offset="1" stop-color="#E0E0E0"/>
</linearGradient>
<linearGradient id="paint2_linear_25_52" x1="18.7882" y1="7.44405" x2="28.7753" y2="7.44405" gradientUnits="userSpaceOnUse">
<stop stop-color="#D6D6D6"/>
<stop offset="1" stop-color="#F9F9F9"/>
</linearGradient>
<clipPath id="clip0_25_52">
<rect width="10.0411" height="12.8067" fill="white" transform="translate(18.2651 2.6759)"/>
</clipPath>
</defs>
</svg>
