<svg width="107" height="121" viewBox="0 0 107 121" fill="none" xmlns="http://www.w3.org/2000/svg">
<path d="M76.3212 21.1874H28.7704C26.111 21.1874 23.9551 23.3433 23.9551 26.0027V59.7096V99.4356C23.9551 102.095 26.1109 104.251 28.7704 104.251H84.146C86.8054 104.251 88.9613 102.095 88.9613 99.4356V31.4198M76.3212 21.1874V27.8084C76.3212 29.8029 77.9381 31.4198 79.9327 31.4198H88.9613M76.3212 21.1874L88.9613 31.4198" stroke="url(#paint0_linear_25_415)" stroke-width="0.994459"/>
<path d="M71.2054 43.5371H37.3383C36.9181 43.5371 36.5151 43.402 36.218 43.1616C35.9208 42.9211 35.7539 42.5949 35.7539 42.2548C35.7539 41.9147 35.9208 41.5886 36.218 41.3481C36.5151 41.1076 36.9181 40.9725 37.3383 40.9725H71.2054C71.6257 40.9725 72.0287 41.1076 72.3258 41.3481C72.6229 41.5886 72.7899 41.9147 72.7899 42.2548C72.7899 42.5949 72.6229 42.9211 72.3258 43.1616C72.0287 43.402 71.6257 43.5371 71.2054 43.5371Z" fill="#B9DBFF"/>
<path d="M77.8036 47.9317H37.3407C36.9198 47.9317 36.5162 47.7966 36.2187 47.5561C35.9211 47.3156 35.7539 46.9895 35.7539 46.6494C35.7539 46.3093 35.9211 45.9831 36.2187 45.7426C36.5162 45.5022 36.9198 45.3671 37.3407 45.3671H77.8036C78.2244 45.3671 78.628 45.5022 78.9256 45.7426C79.2232 45.9831 79.3903 46.3093 79.3903 46.6494C79.3903 46.9895 79.2232 47.3156 78.9256 47.5561C78.628 47.7966 78.2244 47.9317 77.8036 47.9317Z" fill="#E3DCFF"/>
<path d="M71.2054 63.5045H37.3383C36.9181 63.5045 36.5151 63.3597 36.218 63.1021C35.9208 62.8444 35.7539 62.495 35.7539 62.1306C35.7539 61.7662 35.9208 61.4168 36.218 61.1591C36.5151 60.9015 36.9181 60.7567 37.3383 60.7567H71.2054C71.6257 60.7567 72.0287 60.9015 72.3258 61.1591C72.6229 61.4168 72.7899 61.7662 72.7899 62.1306C72.7899 62.495 72.6229 62.8444 72.3258 63.1021C72.0287 63.3597 71.6257 63.5045 71.2054 63.5045Z" fill="#B9DBFF"/>
<path d="M77.8036 67.9H37.3407C36.9198 67.9 36.5162 67.7553 36.2187 67.4976C35.9211 67.24 35.7539 66.8905 35.7539 66.5261C35.7539 66.1617 35.9211 65.8123 36.2187 65.5546C36.5162 65.297 36.9198 65.1522 37.3407 65.1522H77.8036C78.2244 65.1522 78.628 65.297 78.9256 65.5546C79.2232 65.8123 79.3903 66.1617 79.3903 66.5261C79.3903 66.8905 79.2232 67.24 78.9256 67.4976C78.628 67.7553 78.2244 67.9 77.8036 67.9Z" fill="#E3DCFF"/>
<path d="M71.2054 83.2871H37.3383C37.1303 83.2871 36.9242 83.254 36.732 83.1895C36.5398 83.1251 36.3651 83.0306 36.218 82.9116C36.0708 82.7925 35.9541 82.6511 35.8745 82.4956C35.7949 82.34 35.7539 82.1732 35.7539 82.0048C35.7539 81.8364 35.7949 81.6697 35.8745 81.5141C35.9541 81.3585 36.0708 81.2172 36.218 81.0981C36.3651 80.979 36.5398 80.8846 36.732 80.8201C36.9242 80.7557 37.1303 80.7225 37.3383 80.7225H71.2054C71.6257 80.7225 72.0287 80.8576 72.3258 81.0981C72.6229 81.3386 72.7899 81.6647 72.7899 82.0048C72.7899 82.3449 72.6229 82.6711 72.3258 82.9116C72.0287 83.152 71.6257 83.2871 71.2054 83.2871Z" fill="#B9DBFF"/>
<path d="M77.8036 87.6836H37.3407C37.1323 87.6836 36.926 87.6504 36.7335 87.586C36.5409 87.5216 36.366 87.4271 36.2187 87.308C36.0713 87.189 35.9544 87.0476 35.8747 86.892C35.7949 86.7365 35.7539 86.5697 35.7539 86.4013C35.7539 86.2329 35.7949 86.0662 35.8747 85.9106C35.9544 85.755 36.0713 85.6137 36.2187 85.4946C36.366 85.3755 36.5409 85.2811 36.7335 85.2166C36.926 85.1522 37.1323 85.119 37.3407 85.119H77.8036C78.0119 85.119 78.2183 85.1522 78.4108 85.2166C78.6033 85.2811 78.7782 85.3755 78.9256 85.4946C79.0729 85.6137 79.1898 85.755 79.2696 85.9106C79.3493 86.0662 79.3903 86.2329 79.3903 86.4013C79.3903 86.5697 79.3493 86.7365 79.2696 86.892C79.1898 87.0476 79.0729 87.189 78.9256 87.308C78.7782 87.4271 78.6033 87.5216 78.4108 87.586C78.2183 87.6504 78.012 87.6836 77.8036 87.6836Z" fill="#E3DCFF"/>
<g filter="url(#filter0_d_25_415)">
<rect x="39.6055" y="4.33386" width="30.4355" height="30.4088" rx="15.2044" fill="white"/>
<rect x="39.937" y="4.66535" width="29.7725" height="29.7458" rx="14.8729" stroke="url(#paint1_linear_25_415)" stroke-width="0.662973"/>
</g>
<path d="M55.1219 18.9424C54.0962 18.9424 53.2181 18.5775 52.4877 17.8477C51.7573 17.1179 51.3921 16.2406 51.3921 15.2158C51.3921 14.191 51.7573 13.3137 52.4877 12.5839C53.2181 11.8542 54.0962 11.4893 55.1219 11.4893C56.1476 11.4893 57.0257 11.8542 57.7561 12.5839C58.4865 13.3137 58.8517 14.191 58.8517 15.2158C58.8517 16.2406 58.4865 17.1179 57.7561 17.8477C57.0257 18.5775 56.1476 18.9424 55.1219 18.9424ZM47.6622 26.3955V23.7869C47.6622 23.259 47.7984 22.7736 48.0706 22.3308C48.3429 21.8879 48.7041 21.5504 49.1542 21.3181C50.1177 20.8367 51.0968 20.4756 52.0914 20.2346C53.086 19.9936 54.0962 19.8734 55.1219 19.874C56.1476 19.874 57.1578 19.9945 58.1524 20.2355C59.147 20.4765 60.1261 20.8374 61.0897 21.3181C61.5403 21.551 61.9018 21.8889 62.1741 22.3317C62.4464 22.7746 62.5822 23.2596 62.5816 23.7869V26.3955H47.6622Z" fill="url(#paint2_linear_25_415)"/>
<g clip-path="url(#clip0_25_415)">
<path opacity="0.42" d="M48.6832 14.0996C49.0087 14.0996 49.2726 13.8359 49.2726 13.5107C49.2726 13.1854 49.0087 12.9218 48.6832 12.9218C48.3576 12.9218 48.0938 13.1854 48.0938 13.5107C48.0938 13.8359 48.3576 14.0996 48.6832 14.0996Z" fill="#4DD0E1"/>
<path d="M48.6193 13.1019C48.6441 13.1536 48.5651 13.2192 48.5344 13.26C48.4543 13.3665 48.4959 13.4492 48.4362 13.5463C48.3911 13.6192 48.2482 13.6695 48.2213 13.4911C48.2045 13.3794 48.2744 13.253 48.3219 13.2014C48.4795 13.0303 48.5986 13.0593 48.6193 13.1019Z" fill="white"/>
<path d="M48.6834 14.1516C48.3291 14.1516 48.041 13.8637 48.041 13.5098C48.041 13.1559 48.3291 12.868 48.6834 12.868C49.0376 12.868 49.3257 13.1559 49.3257 13.5098C49.3257 13.8637 49.0372 14.1516 48.6834 14.1516ZM48.6711 12.9589C48.3669 12.9589 48.1193 13.2062 48.1193 13.5102C48.1193 13.8141 48.3669 14.0615 48.6711 14.0615C48.9753 14.0615 49.2229 13.8141 49.2229 13.5102C49.2229 13.2062 48.9757 12.9589 48.6711 12.9589Z" fill="#4DC6E1"/>
<path opacity="0.42" d="M48.0968 15.7342C48.5149 15.7342 48.8538 15.3955 48.8538 14.9778C48.8538 14.5601 48.5149 14.2214 48.0968 14.2214C47.6787 14.2214 47.3397 14.5601 47.3397 14.9778C47.3397 15.3955 47.6787 15.7342 48.0968 15.7342Z" fill="#4DD0E1"/>
<path d="M48.0983 15.8047C47.6423 15.8047 47.2713 15.434 47.2713 14.9785C47.2713 14.5229 47.6423 14.1522 48.0983 14.1522C48.5542 14.1522 48.9253 14.5229 48.9253 14.9785C48.9253 15.434 48.5542 15.8047 48.0983 15.8047ZM48.1193 14.2532C47.7164 14.2532 47.3888 14.5805 47.3888 14.983C47.3888 15.3855 47.7164 15.7128 48.1193 15.7128C48.5221 15.7128 48.8497 15.3855 48.8497 14.983C48.8497 14.5805 48.5221 14.2532 48.1193 14.2532Z" fill="#4DC6E1"/>
<path opacity="0.7" d="M47.9135 14.401C48.0672 14.3905 48.1203 14.5001 48.0822 14.587C48.0333 14.6987 47.9194 14.6589 47.8191 14.7675C47.7499 14.8426 47.6021 14.9239 47.5815 14.7581C47.5634 14.6115 47.7258 14.4139 47.9135 14.401Z" fill="white"/>
<path d="M48.3576 14.5975C48.4502 14.5972 48.4614 14.4931 48.4118 14.4376C48.3545 14.3521 48.1626 14.3612 48.2081 14.5022C48.228 14.5643 48.2643 14.5979 48.3576 14.5975Z" fill="white"/>
<path opacity="0.42" d="M46.4766 14.3616C47.2176 14.3616 47.8183 13.7614 47.8183 13.0211C47.8183 12.2807 47.2176 11.6805 46.4766 11.6805C45.7356 11.6805 45.1349 12.2807 45.1349 13.0211C45.1349 13.7614 45.7356 14.3616 46.4766 14.3616Z" fill="#4DD0E1"/>
<path opacity="0.7" d="M46.3227 12.0054C46.4761 12.0581 46.5167 12.1949 46.4695 12.3119C46.4262 12.4194 46.2633 12.4679 46.1613 12.5234C46.0058 12.6076 45.893 12.7168 45.8088 12.8722C45.7274 13.0223 45.5079 13.083 45.4779 12.8648C45.4545 12.6941 45.5607 12.4512 45.6603 12.3265C45.7483 12.2166 45.8692 12.1185 45.9957 12.0557C46.0848 12.0117 46.226 11.9722 46.3227 12.0054Z" fill="white"/>
<path d="M47.0395 12.0812C47.1024 12.1343 47.1097 12.2317 47.0227 12.262C46.9839 12.2728 46.9434 12.2554 46.9032 12.2526C46.8215 12.247 46.7876 12.276 46.7177 12.2463C46.6136 12.2016 46.5706 12.1116 46.6202 12.0376C46.6447 12.0013 46.6911 11.9827 46.7324 11.9747C46.8442 11.9531 46.9609 12.0023 47.0395 12.0812Z" fill="white"/>
<path d="M46.4961 14.4326C45.7272 14.4326 45.1017 13.8075 45.1017 13.0393C45.1017 12.271 45.7272 11.6464 46.4961 11.6464C47.2651 11.6464 47.8906 12.2714 47.8906 13.0396C47.8906 13.8079 47.2647 14.4326 46.4961 14.4326ZM46.5178 11.7938C45.8164 11.7938 45.2461 12.3636 45.2461 13.0644C45.2461 13.7653 45.8167 14.3351 46.5178 14.3351C47.2189 14.3351 47.7896 13.7649 47.7896 13.0644C47.7896 12.364 47.2189 11.7938 46.5178 11.7938Z" fill="#4DC6E1"/>
<path d="M47.4961 13.2532C47.3845 13.2207 47.3887 13.3406 47.2712 13.5317C47.1929 13.6588 47.0279 13.8241 46.7593 13.8901C46.6013 13.9289 46.5303 13.9621 46.5257 14.0201C46.5177 14.119 46.6523 14.1455 46.8478 14.0945C47.366 13.96 47.7328 13.3221 47.4961 13.2532ZM48.6703 15.1559C48.585 15.1269 48.6052 15.2582 48.4367 15.3767C48.257 15.5031 48.1482 15.4727 48.1419 15.5444C48.1353 15.6209 48.3223 15.6205 48.5171 15.4755C48.686 15.3505 48.7566 15.1852 48.6703 15.1559ZM49.1511 13.5799C49.1714 13.4726 49.1458 13.2473 49.0371 13.3193C48.9934 13.3483 49.0623 13.4723 49.0413 13.5788C49.0133 13.7217 48.9602 13.7965 48.835 13.8856C48.8063 13.9058 48.8217 13.9436 48.8759 13.924C49.0189 13.8727 49.1161 13.7664 49.1511 13.5799Z" fill="white"/>
</g>
<g filter="url(#filter1_d_25_415)">
<rect x="7.70328" y="58.7404" width="23.285" height="23.2646" rx="11.6323" fill="white"/>
<rect x="8.03476" y="59.0718" width="22.622" height="22.6016" rx="11.3008" stroke="url(#paint3_linear_25_415)" stroke-width="0.662973"/>
</g>
<g clip-path="url(#clip1_25_415)">
<path d="M18.0653 70.5292C17.4709 70.5292 16.9656 70.3212 16.5495 69.905C16.1334 69.4889 15.9253 68.9837 15.9253 68.3892C15.9253 68.1277 15.9669 67.8808 16.0501 67.6488C16.1334 67.4167 16.2582 67.2058 16.4246 67.016C16.3771 66.8972 16.3414 66.7723 16.3176 66.6415C16.2939 66.5108 16.282 66.38 16.282 66.2492C16.282 65.7974 16.404 65.3961 16.6479 65.0451C16.8919 64.6941 17.2098 64.4359 17.6016 64.2704C17.8394 63.997 18.1188 63.783 18.4398 63.6284C18.7608 63.4739 19.1115 63.3963 19.492 63.3959C19.8724 63.3959 20.2231 63.4732 20.5441 63.6277C20.8651 63.7823 21.1445 63.9963 21.3823 64.2697C21.7746 64.4362 22.0928 64.6949 22.3368 65.0458C22.5807 65.3968 22.7025 65.7979 22.702 66.2492C22.702 66.38 22.6901 66.5108 22.6663 66.6415C22.6425 66.7723 22.6069 66.8972 22.5593 67.016C22.7258 67.2063 22.8506 67.4174 22.9338 67.6495C23.017 67.8816 23.0587 68.1281 23.0587 68.3892C23.0587 68.9837 22.8506 69.4889 22.4345 69.905C22.0184 70.3212 21.5131 70.5292 20.9186 70.5292H18.0653ZM15.212 76.2359C14.8196 76.2359 14.4837 76.0961 14.204 75.8164C13.9244 75.5368 13.7848 75.2011 13.7853 74.8092V74.2386C13.7853 73.8343 13.8895 73.4627 14.0978 73.1236C14.306 72.7845 14.5823 72.5261 14.9266 72.3482C15.6638 71.9797 16.4128 71.7031 17.1736 71.5186C17.9345 71.3341 18.7073 71.2421 19.492 71.2425C20.2766 71.2425 21.0494 71.3348 21.8103 71.5193C22.5712 71.7038 23.3202 71.9801 24.0573 72.3482C24.4021 72.5265 24.6786 72.7853 24.8869 73.1243C25.0952 73.4634 25.1991 73.8348 25.1987 74.2386V74.8092C25.1987 75.2016 25.0588 75.5375 24.7792 75.8172C24.4996 76.0968 24.1638 76.2364 23.772 76.2359H15.212Z" fill="url(#paint4_linear_25_415)"/>
</g>
<g clip-path="url(#clip2_25_415)">
<path opacity="0.42" d="M14.6464 66.2108C14.8955 66.2108 15.0974 66.0091 15.0974 65.7603C15.0974 65.5114 14.8955 65.3097 14.6464 65.3097C14.3974 65.3097 14.1955 65.5114 14.1955 65.7603C14.1955 66.0091 14.3974 66.2108 14.6464 66.2108Z" fill="#4DD0E1"/>
<path d="M14.5976 65.4489C14.6166 65.4885 14.5561 65.5387 14.5326 65.5699C14.4714 65.6514 14.5032 65.7147 14.4575 65.7889C14.423 65.8448 14.3137 65.8832 14.2931 65.7467C14.2803 65.6613 14.3337 65.5646 14.3701 65.5251C14.4907 65.3942 14.5818 65.4164 14.5976 65.4489Z" fill="white"/>
<path d="M14.6475 66.2519C14.3767 66.2519 14.1564 66.0318 14.1564 65.7613C14.1564 65.4907 14.3767 65.2706 14.6475 65.2706C14.9182 65.2706 15.1385 65.4907 15.1385 65.7613C15.1385 66.0318 14.918 66.2519 14.6475 66.2519ZM14.6381 65.3401C14.4055 65.3401 14.2163 65.5292 14.2163 65.7615C14.2163 65.9939 14.4055 66.183 14.6381 66.183C14.8707 66.183 15.0599 65.9939 15.0599 65.7615C15.0599 65.5292 14.8709 65.3401 14.6381 65.3401Z" fill="#4DC6E1"/>
<path opacity="0.42" d="M14.1961 67.4622C14.5157 67.4622 14.7748 67.2034 14.7748 66.884C14.7748 66.5647 14.5157 66.3058 14.1961 66.3058C13.8764 66.3058 13.6173 66.5647 13.6173 66.884C13.6173 67.2034 13.8764 67.4622 14.1961 67.4622Z" fill="#4DD0E1"/>
<path d="M14.1948 67.5154C13.8463 67.5154 13.5627 67.232 13.5627 66.8837C13.5627 66.5354 13.8463 66.2521 14.1948 66.2521C14.5434 66.2521 14.827 66.5354 14.827 66.8837C14.827 67.232 14.5434 67.5154 14.1948 67.5154ZM14.2109 66.3293C13.9029 66.3293 13.6525 66.5795 13.6525 66.8872C13.6525 67.1949 13.9029 67.4451 14.2109 67.4451C14.5188 67.4451 14.7693 67.1949 14.7693 66.8872C14.7693 66.5795 14.5188 66.3293 14.2109 66.3293Z" fill="#4DC6E1"/>
<path opacity="0.7" d="M14.0579 66.443C14.1755 66.435 14.2161 66.5189 14.187 66.5854C14.1496 66.6709 14.0624 66.6404 13.9857 66.7235C13.9328 66.7809 13.8197 66.8431 13.804 66.7163C13.7901 66.6041 13.9144 66.4529 14.0579 66.443Z" fill="white"/>
<path d="M14.3991 66.5942C14.47 66.5939 14.4785 66.5143 14.4406 66.4718C14.3967 66.4064 14.25 66.4133 14.2847 66.5212C14.3 66.5688 14.3278 66.5944 14.3991 66.5942Z" fill="white"/>
<path opacity="0.42" d="M12.9602 66.4136C13.5271 66.4136 13.9867 65.9544 13.9867 65.388C13.9867 64.8216 13.5271 64.3624 12.9602 64.3624C12.3933 64.3624 11.9337 64.8216 11.9337 65.388C11.9337 65.9544 12.3933 66.4136 12.9602 66.4136Z" fill="#4DD0E1"/>
<path opacity="0.7" d="M12.8402 64.6083C12.9575 64.6486 12.9885 64.7533 12.9525 64.8428C12.9193 64.9251 12.7947 64.9622 12.7167 65.0047C12.5977 65.069 12.5114 65.1526 12.447 65.2715C12.3847 65.3863 12.2168 65.4328 12.1938 65.2659C12.1759 65.1353 12.2572 64.9494 12.3334 64.854C12.4007 64.7699 12.4932 64.6948 12.59 64.6468C12.6581 64.6131 12.7661 64.5829 12.8402 64.6083Z" fill="white"/>
<path d="M13.3875 64.6675C13.4356 64.7081 13.4412 64.7826 13.3746 64.8059C13.345 64.8142 13.3139 64.8008 13.2832 64.7987C13.2207 64.7944 13.1947 64.8166 13.1413 64.7939C13.0616 64.7597 13.0287 64.6908 13.0667 64.6341C13.0854 64.6064 13.121 64.5922 13.1525 64.5861C13.238 64.5695 13.3273 64.6072 13.3875 64.6675Z" fill="white"/>
<path d="M12.9713 66.4657C12.383 66.4657 11.9044 65.9875 11.9044 65.3998C11.9044 64.812 12.383 64.3341 12.9713 64.3341C13.5596 64.3341 14.0382 64.8123 14.0382 65.4C14.0382 65.9878 13.5593 66.4657 12.9713 66.4657ZM12.9879 64.4469C12.4513 64.4469 12.0149 64.8828 12.0149 65.419C12.0149 65.9552 12.4515 66.3911 12.9879 66.3911C13.5243 66.3911 13.9609 65.9549 13.9609 65.419C13.9609 64.8831 13.5243 64.4469 12.9879 64.4469Z" fill="#4DC6E1"/>
<path d="M13.735 65.5637C13.6496 65.5389 13.6528 65.6306 13.563 65.7768C13.503 65.8741 13.3768 66.0005 13.1713 66.051C13.0504 66.0807 12.9961 66.1061 12.9926 66.1504C12.9864 66.2261 13.0894 66.2464 13.239 66.2074C13.6355 66.1045 13.9161 65.6164 13.735 65.5637ZM14.6333 67.0194C14.568 66.9972 14.5835 67.0977 14.4546 67.1883C14.3171 67.2851 14.2339 67.2618 14.2291 67.3166C14.224 67.3751 14.3671 67.3749 14.5161 67.264C14.6453 67.1683 14.6994 67.0418 14.6333 67.0194ZM15.0011 65.8137C15.0167 65.7316 14.9971 65.5592 14.9139 65.6143C14.8805 65.6364 14.9332 65.7313 14.9171 65.8129C14.8957 65.9222 14.8551 65.9794 14.7593 66.0475C14.7374 66.063 14.7491 66.0919 14.7906 66.0769C14.9 66.0376 14.9744 65.9564 15.0011 65.8137Z" fill="white"/>
</g>
<g filter="url(#filter2_d_25_415)">
<rect x="72.7893" y="83.4022" width="26.4019" height="26.3787" rx="13.1894" fill="white"/>
<rect x="73.1208" y="83.7337" width="25.7389" height="25.7158" rx="12.8579" stroke="url(#paint5_linear_25_415)" stroke-width="0.662973"/>
</g>
<path d="M85.891 96.308C85.0013 96.308 84.2396 95.9912 83.606 95.3576C82.9724 94.7239 82.6556 93.9623 82.6556 93.0725V90.2415C82.6556 89.9045 82.7737 89.6179 83.0099 89.3817C83.2461 89.1455 83.5324 89.0277 83.8689 89.0282C84.0711 89.0282 84.2633 89.0754 84.4456 89.1698C84.6279 89.2641 84.7727 89.3989 84.88 89.5742C84.9878 89.3989 85.1326 89.2641 85.3143 89.1698C85.496 89.0754 85.6883 89.0282 85.891 89.0282C86.0933 89.0282 86.2855 89.0754 86.4678 89.1698C86.65 89.2641 86.7948 89.3989 86.9021 89.5742C87.01 89.3989 87.1548 89.2641 87.3365 89.1698C87.5182 89.0754 87.7104 89.0282 87.9132 89.0282C88.2502 89.0282 88.5368 89.1463 88.773 89.3825C89.0092 89.6187 89.127 89.905 89.1265 90.2415V93.0725C89.1265 93.9623 88.8097 94.7239 88.1761 95.3576C87.5425 95.9912 86.7808 96.308 85.891 96.308ZM81.0379 102.779C80.593 102.779 80.212 102.62 79.8949 102.303C79.5779 101.986 79.4196 101.605 79.4201 101.161V100.514C79.4201 100.056 79.5382 99.6343 79.7744 99.2498C80.0106 98.8653 80.3239 98.5722 80.7143 98.3706C81.5501 97.9527 82.3994 97.6391 83.2622 97.4299C84.125 97.2206 85.0013 97.1163 85.891 97.1168C86.7808 97.1168 87.6571 97.2214 88.5198 97.4307C89.3826 97.6399 90.2319 97.9532 91.0678 98.3706C91.4587 98.5728 91.7723 98.8661 92.0085 99.2506C92.2447 99.6351 92.3625 100.056 92.3619 100.514V101.161C92.3619 101.606 92.2034 101.987 91.8863 102.304C91.5693 102.621 91.1886 102.779 90.7442 102.779H81.0379Z" fill="url(#paint6_linear_25_415)"/>
<g clip-path="url(#clip3_25_415)">
<path opacity="0.42" d="M80.6679 91.8715C80.9503 91.8715 81.1792 91.6427 81.1792 91.3606C81.1792 91.0785 80.9503 90.8497 80.6679 90.8497C80.3855 90.8497 80.1566 91.0785 80.1566 91.3606C80.1566 91.6427 80.3855 91.8715 80.6679 91.8715Z" fill="#4DD0E1"/>
<path d="M80.6115 91.0049C80.633 91.0497 80.5645 91.1067 80.5378 91.1421C80.4684 91.2344 80.5045 91.3062 80.4527 91.3904C80.4136 91.4537 80.2896 91.4973 80.2663 91.3426C80.2517 91.2457 80.3123 91.136 80.3536 91.0912C80.4903 90.9428 80.5936 90.968 80.6115 91.0049Z" fill="white"/>
<path d="M80.6664 91.9153C80.3594 91.9153 80.1096 91.6658 80.1096 91.359C80.1096 91.0523 80.3594 90.8027 80.6664 90.8027C80.9734 90.8027 81.2232 91.0523 81.2232 91.359C81.2232 91.6658 80.9731 91.9153 80.6664 91.9153ZM80.6558 90.8815C80.3921 90.8815 80.1775 91.0959 80.1775 91.3593C80.1775 91.6228 80.3921 91.8372 80.6558 91.8372C80.9195 91.8372 81.1341 91.6228 81.1341 91.3593C81.1341 91.0959 80.9198 90.8815 80.6558 90.8815Z" fill="#4DC6E1"/>
<path opacity="0.42" d="M80.1588 93.2888C80.5215 93.2888 80.8156 92.9951 80.8156 92.6327C80.8156 92.2703 80.5215 91.9766 80.1588 91.9766C79.7962 91.9766 79.5021 92.2703 79.5021 92.6327C79.5021 92.9951 79.7962 93.2888 80.1588 93.2888Z" fill="#4DD0E1"/>
<path d="M80.159 93.3505C79.7634 93.3505 79.4416 93.0289 79.4416 92.6337C79.4416 92.2385 79.7634 91.917 80.159 91.917C80.5545 91.917 80.8763 92.2385 80.8763 92.6337C80.8763 93.0289 80.5545 93.3505 80.159 93.3505ZM80.1772 92.0046C79.8277 92.0046 79.5435 92.2885 79.5435 92.6377C79.5435 92.9868 79.8277 93.2708 80.1772 93.2708C80.5266 93.2708 80.8108 92.9868 80.8108 92.6377C80.8108 92.2885 80.5266 92.0046 80.1772 92.0046Z" fill="#4DC6E1"/>
<path opacity="0.7" d="M80.0001 92.1326C80.1334 92.1235 80.1795 92.2186 80.1464 92.294C80.104 92.3909 80.0052 92.3564 79.9182 92.4505C79.8582 92.5156 79.73 92.5862 79.7121 92.4424C79.6964 92.3152 79.8373 92.1438 80.0001 92.1326Z" fill="white"/>
<path d="M80.3841 92.3055C80.4644 92.3052 80.4741 92.2149 80.4311 92.1668C80.3814 92.0926 80.215 92.1005 80.2544 92.2228C80.2717 92.2767 80.3032 92.3058 80.3841 92.3055Z" fill="white"/>
<path opacity="0.42" d="M78.754 92.0992C79.3968 92.0992 79.9178 91.5785 79.9178 90.9363C79.9178 90.2941 79.3968 89.7734 78.754 89.7734C78.1112 89.7734 77.5901 90.2941 77.5901 90.9363C77.5901 91.5785 78.1112 92.0992 78.754 92.0992Z" fill="#4DD0E1"/>
<path opacity="0.7" d="M78.6207 90.0527C78.7537 90.0984 78.7889 90.2171 78.748 90.3186C78.7104 90.4118 78.5691 90.4539 78.4806 90.5021C78.3458 90.5751 78.2479 90.6699 78.1748 90.8046C78.1042 90.9348 77.9139 90.9875 77.8878 90.7983C77.8675 90.6502 77.9596 90.4394 78.046 90.3313C78.1224 90.2359 78.2273 90.1508 78.337 90.0963C78.4143 90.0581 78.5367 90.0239 78.6207 90.0527Z" fill="white"/>
<path d="M79.2411 90.1202C79.2957 90.1663 79.3021 90.2508 79.2266 90.2771C79.1929 90.2865 79.1578 90.2713 79.1229 90.2689C79.052 90.2641 79.0226 90.2892 78.962 90.2635C78.8717 90.2247 78.8344 90.1466 78.8774 90.0824C78.8986 90.0509 78.9389 90.0348 78.9747 90.0279C79.0717 90.0091 79.1729 90.0518 79.2411 90.1202Z" fill="white"/>
<path d="M78.7685 92.1601C78.1015 92.1601 77.5588 91.6179 77.5588 90.9515C77.5588 90.285 78.1015 89.7432 78.7685 89.7432C79.4355 89.7432 79.9782 90.2853 79.9782 90.9518C79.9782 91.6182 79.4352 92.1601 78.7685 92.1601ZM78.7873 89.8711C78.1788 89.8711 77.6841 90.3654 77.6841 90.9733C77.6841 91.5812 78.1791 92.0755 78.7873 92.0755C79.3955 92.0755 79.8905 91.5809 79.8905 90.9733C79.8905 90.3657 79.3955 89.8711 78.7873 89.8711Z" fill="#4DC6E1"/>
<path d="M79.6371 91.1364C79.5404 91.1082 79.544 91.2122 79.4421 91.378C79.3742 91.4883 79.231 91.6316 78.998 91.6889C78.8609 91.7226 78.7993 91.7514 78.7954 91.8017C78.7884 91.8874 78.9052 91.9105 79.0748 91.8662C79.5243 91.7495 79.8425 91.1961 79.6371 91.1364ZM80.6557 92.7869C80.5817 92.7618 80.5993 92.8757 80.4531 92.9785C80.2972 93.0882 80.2029 93.0618 80.1974 93.1239C80.1916 93.1903 80.3539 93.19 80.5229 93.0642C80.6694 92.9557 80.7306 92.8124 80.6557 92.7869ZM81.0728 91.4198C81.0904 91.3268 81.0683 91.1313 80.9739 91.1937C80.936 91.2189 80.9958 91.3265 80.9776 91.4189C80.9533 91.5428 80.9072 91.6077 80.7986 91.685C80.7737 91.7026 80.7871 91.7353 80.8341 91.7183C80.9581 91.6738 81.0425 91.5816 81.0728 91.4198Z" fill="white"/>
</g>
<defs>
<filter id="filter0_d_25_415" x="32.733" y="0.897623" width="44.1804" height="44.1538" filterUnits="userSpaceOnUse" color-interpolation-filters="sRGB">
<feFlood flood-opacity="0" result="BackgroundImageFix"/>
<feColorMatrix in="SourceAlpha" type="matrix" values="0 0 0 0 0 0 0 0 0 0 0 0 0 0 0 0 0 0 127 0" result="hardAlpha"/>
<feMorphology radius="1.71812" operator="erode" in="SourceAlpha" result="effect1_dropShadow_25_415"/>
<feOffset dy="3.43624"/>
<feGaussianBlur stdDeviation="4.2953"/>
<feComposite in2="hardAlpha" operator="out"/>
<feColorMatrix type="matrix" values="0 0 0 0 0 0 0 0 0 0.521176 0 0 0 0 0.592157 0 0 0 0.25 0"/>
<feBlend mode="normal" in2="BackgroundImageFix" result="effect1_dropShadow_25_415"/>
<feBlend mode="normal" in="SourceGraphic" in2="effect1_dropShadow_25_415" result="shape"/>
</filter>
<filter id="filter1_d_25_415" x="0.830798" y="55.3041" width="37.0299" height="37.0095" filterUnits="userSpaceOnUse" color-interpolation-filters="sRGB">
<feFlood flood-opacity="0" result="BackgroundImageFix"/>
<feColorMatrix in="SourceAlpha" type="matrix" values="0 0 0 0 0 0 0 0 0 0 0 0 0 0 0 0 0 0 127 0" result="hardAlpha"/>
<feMorphology radius="1.71812" operator="erode" in="SourceAlpha" result="effect1_dropShadow_25_415"/>
<feOffset dy="3.43624"/>
<feGaussianBlur stdDeviation="4.2953"/>
<feComposite in2="hardAlpha" operator="out"/>
<feColorMatrix type="matrix" values="0 0 0 0 0 0 0 0 0 0.521176 0 0 0 0 0.592157 0 0 0 0.25 0"/>
<feBlend mode="normal" in2="BackgroundImageFix" result="effect1_dropShadow_25_415"/>
<feBlend mode="normal" in="SourceGraphic" in2="effect1_dropShadow_25_415" result="shape"/>
</filter>
<filter id="filter2_d_25_415" x="65.9168" y="79.966" width="40.1468" height="40.1237" filterUnits="userSpaceOnUse" color-interpolation-filters="sRGB">
<feFlood flood-opacity="0" result="BackgroundImageFix"/>
<feColorMatrix in="SourceAlpha" type="matrix" values="0 0 0 0 0 0 0 0 0 0 0 0 0 0 0 0 0 0 127 0" result="hardAlpha"/>
<feMorphology radius="1.71812" operator="erode" in="SourceAlpha" result="effect1_dropShadow_25_415"/>
<feOffset dy="3.43624"/>
<feGaussianBlur stdDeviation="4.2953"/>
<feComposite in2="hardAlpha" operator="out"/>
<feColorMatrix type="matrix" values="0 0 0 0 0 0 0 0 0 0.521176 0 0 0 0 0.592157 0 0 0 0.25 0"/>
<feBlend mode="normal" in2="BackgroundImageFix" result="effect1_dropShadow_25_415"/>
<feBlend mode="normal" in="SourceGraphic" in2="effect1_dropShadow_25_415" result="shape"/>
</filter>
<linearGradient id="paint0_linear_25_415" x1="23.3532" y1="21.1874" x2="88.3594" y2="104.251" gradientUnits="userSpaceOnUse">
<stop stop-color="#89AEFF"/>
<stop offset="1" stop-color="#16D1E3"/>
</linearGradient>
<linearGradient id="paint1_linear_25_415" x1="39.6055" y1="6.5698" x2="66.4364" y2="33.8718" gradientUnits="userSpaceOnUse">
<stop stop-color="#29F9F8"/>
<stop offset="1" stop-color="#0176FF"/>
</linearGradient>
<linearGradient id="paint2_linear_25_415" x1="53.2197" y1="11.5638" x2="56.2358" y2="26.3221" gradientUnits="userSpaceOnUse">
<stop stop-color="#2F327D"/>
<stop offset="1" stop-color="#0075FF"/>
</linearGradient>
<linearGradient id="paint3_linear_25_415" x1="7.70328" y1="60.451" x2="28.2305" y2="81.3387" gradientUnits="userSpaceOnUse">
<stop stop-color="#29F9F8"/>
<stop offset="1" stop-color="#0176FF"/>
</linearGradient>
<linearGradient id="paint4_linear_25_415" x1="13.7853" y1="63.3959" x2="25.1987" y2="76.2359" gradientUnits="userSpaceOnUse">
<stop stop-color="#2D3683"/>
<stop offset="1" stop-color="#0176FF"/>
</linearGradient>
<linearGradient id="paint5_linear_25_415" x1="72.7893" y1="85.3418" x2="96.0643" y2="109.026" gradientUnits="userSpaceOnUse">
<stop stop-color="#29F9F8"/>
<stop offset="1" stop-color="#0176FF"/>
</linearGradient>
<linearGradient id="paint6_linear_25_415" x1="79.4201" y1="89.0282" x2="92.3619" y2="102.779" gradientUnits="userSpaceOnUse">
<stop stop-color="#2D3684"/>
<stop offset="1" stop-color="#0176FF"/>
</linearGradient>
<clipPath id="clip0_25_415">
<rect width="4.47581" height="4.47189" fill="white" transform="translate(44.9766 11.4882)"/>
</clipPath>
<clipPath id="clip1_25_415">
<rect width="13.697" height="13.685" fill="white" transform="translate(12.4962 62.847)"/>
</clipPath>
<clipPath id="clip2_25_415">
<rect width="3.42426" height="3.42126" fill="white" transform="translate(11.8107 64.214)"/>
</clipPath>
<clipPath id="clip3_25_415">
<rect width="3.88263" height="3.87922" fill="white" transform="translate(77.4494 89.6084)"/>
</clipPath>
</defs>
</svg>
